<?xml version="1.0" encoding="UTF-8"?>
<svg version="1.1" xmlns="http://www.w3.org/2000/svg" width="256" height="256">
<path d="M0 0 C2.35913086 0.15234375 2.35913086 0.15234375 5 1 C6.29516602 3.37890625 6.29516602 3.37890625 7.25390625 6.5625 C7.81428589 8.32920044 7.81428589 8.32920044 8.38598633 10.1315918 C8.67283798 11.07752701 8.67283798 11.07752701 8.96548462 12.04257202 C13.25903128 26.1197778 18.95849626 39.20419839 25.63916016 52.32568359 C26.98164969 54.96393806 28.29466761 57.61542151 29.60546875 60.26953125 C33.35355257 67.73547241 37.5791851 74.41036708 42.5625 81.125 C43.17657715 81.95596191 43.7906543 82.78692383 44.42333984 83.64306641 C48.96684905 89.73755855 53.71317036 95.59663091 58.6953125 101.3359375 C60.86382925 103.84259585 62.94704029 106.39832294 65 109 C69.1646854 107.42602265 71.59085544 104.38039968 74.375 101.0625 C74.88812744 100.45784912 75.40125488 99.85319824 75.92993164 99.23022461 C82.1382957 91.80084816 87.83541178 83.97452893 93.47607422 76.10986328 C94.45208502 74.75858399 95.44214431 73.41727495 96.44970703 72.08935547 C99.1746446 68.45577327 100.6177729 65.28751199 102 61 C103.27196633 58.47151856 104.62932178 55.99700581 105.98632812 53.51318359 C115.08599509 36.83891777 121.89077148 19.29318183 127 1 C128.65 0.67 130.3 0.34 132 0 C139.66997269 13.3096585 137.98453546 38.52372295 134.3125 52.8125 C129.69719002 68.31479555 122.27766532 82.45675023 113.25 95.8125 C112.79028809 96.50053711 112.33057617 97.18857422 111.85693359 97.89746094 C109.44472583 101.37658986 107.83270441 103.1585053 104 105 C102.15731863 107.15456378 100.44223783 109.2964864 98.75 111.5625 C94.39221831 117.2636801 89.87116425 122.72406852 85 128 C88.88570773 132.77766829 92.95905605 136.93650772 97.6875 140.875 C98.29907959 141.3918335 98.91065918 141.90866699 99.54077148 142.44116211 C104.05097035 146.24129709 108.61145422 149.97963076 113.19140625 153.6953125 C117.06132885 156.87090963 120.87203126 160.11490114 124.67407227 163.37133789 C127.05345514 165.39980326 129.39417023 167.26278015 132 169 C132.53625 168.505 133.0725 168.01 133.625 167.5 C136.75912943 165.52054983 138.34350241 165.41496039 142 166 C146.12237626 168.58658903 147.96631781 170.26058796 149.25 174.9375 C150.79773683 179.81742319 153.99362705 181.05433293 158.31640625 183.39453125 C166.20750527 188.11540708 171.60126887 195.84177642 176.859375 203.203125 C179.04773541 206.06236962 181.40806334 208.50595257 184 211 C186.77751241 213.85258031 187.88131014 215.46589563 188.75 219.375 C187.6320318 224.77851299 184.44247203 226.97242488 180 230 C178.0295127 231.08376802 176.04316714 232.04289387 173.99609375 232.97265625 C171.79274389 234.10666997 170.00171505 235.46014805 168.0625 237 C160.42520913 242.95015758 151.68504412 246.07611601 142 245 C134.6031808 242.99931475 126.95958799 239.45610282 122.6171875 232.91796875 C118.85187354 224.97921238 118.64291903 215.59605299 120.6953125 207.1328125 C122.88697562 201.22084728 126.31554431 196.08454885 130 191 C129.26152832 190.72704102 128.52305664 190.45408203 127.76220703 190.17285156 C125.16020811 189.06802544 123.1074421 187.85763705 120.8046875 186.234375 C120.01610352 185.68128662 119.22751953 185.12819824 118.41503906 184.55834961 C117.57682617 183.96159424 116.73861328 183.36483887 115.875 182.75 C114.99553711 182.12810791 114.11607422 181.50621582 113.20996094 180.86547852 C100.22526597 171.6511697 87.31498897 162.38564828 75.16113281 152.08569336 C71.90637686 149.36490732 69.12239846 147.28531055 65 146 C63.5459375 147.19882812 63.5459375 147.19882812 62.0625 148.421875 C43.10224887 163.98433443 23.19172907 178.09404398 3 192 C3.48210937 192.72445312 3.96421875 193.44890625 4.4609375 194.1953125 C5.09257813 195.16210938 5.72421875 196.12890625 6.375 197.125 C7.00148437 198.07632813 7.62796875 199.02765625 8.2734375 200.0078125 C13.28984649 208.70140817 13.06046253 218.9022508 11.60546875 228.640625 C9.88988912 234.26329888 5.77623413 237.89701895 1 241 C-8.07821552 245.47313236 -15.6858629 246.23961307 -25.33984375 243.12109375 C-31.04218069 240.71790623 -36.19321596 237.17248257 -41.07421875 233.39453125 C-42.98011069 232.0144026 -44.78482555 231.12103605 -46.9375 230.1875 C-51.21487681 228.0728418 -53.50279294 226.10830839 -56 222 C-56.37608702 216.92282519 -54.72027768 214.31608479 -51.5625 210.5625 C-49.69140625 208.50390625 -49.69140625 208.50390625 -48 207 C-47.34 207 -46.68 207 -46 207 C-45.72414063 206.41605469 -45.44828125 205.83210937 -45.1640625 205.23046875 C-40.25469207 195.82358782 -32.06990483 186.47616895 -23 181 C-20.0625 180.1875 -20.0625 180.1875 -18 180 C-17.9071875 178.453125 -17.9071875 178.453125 -17.8125 176.875 C-16.82631354 172.17164918 -15.57673496 170.19623124 -12 167 C-9.12560244 166.0474706 -7.11049981 166 -4 166 C-3.01 166.66 -2.02 167.32 -1 168 C-1 168.66 -1 169.32 -1 170 C5.44667189 164.76773123 11.82995987 159.4718774 18.15429688 154.09301758 C21.63032333 151.14220924 25.14345184 148.2442294 28.6875 145.375 C35.41341243 139.89790464 41.90674631 134.17653279 48 128 C47.47792969 127.51273437 46.95585938 127.02546875 46.41796875 126.5234375 C41.05816505 121.36075442 36.41445715 115.92126359 31.9831543 109.96240234 C29.79843263 107.07473476 27.84536551 104.87439728 25.00390625 102.56640625 C21.38755207 99.47675125 19.1333526 96.19000588 16.625 92.1875 C16.15239746 91.44266357 15.67979492 90.69782715 15.19287109 89.93041992 C0.07664425 65.69585997 -6.38526438 42.21796029 -3.125 13.6875 C-3.04668945 13.00091309 -2.96837891 12.31432617 -2.88769531 11.60693359 C-2.36152678 7.53971129 -1.41862884 3.84460337 0 0 Z M-27 218 C-27.91265625 218.70382813 -27.91265625 218.70382813 -28.84375 219.421875 C-30.25604206 221.00387142 -30.25604206 221.00387142 -29.890625 223.44921875 C-28.27319242 228.08160241 -25.26637886 230.69280418 -21 233 C-15.02194833 234.09088534 -9.90093989 233.88492029 -4.375 231.3125 C0.09023427 226.9647719 1.79403256 223.28200689 2 217 C0.94670852 211.7497471 -0.37915844 207.05944865 -4 203 C-11.6447006 203 -21.4240284 213.21465124 -27 218 Z M136 203 C132.05866498 209.61581235 129.60436203 215.22616606 131 223 C132.30523725 226.8792526 134.23499427 229.40712056 137.5 231.9375 C142.76041291 233.53441106 147.56806911 234.00117942 153 233 C157.1971555 230.67692324 160.30125809 228.06764083 161.859375 223.45703125 C162.29001399 220.66396848 162.29001399 220.66396848 159.5625 217.875 C155.58466303 214.22122307 151.17121379 211.14997023 146.75 208.0625 C146.04045166 207.56540527 145.33090332 207.06831055 144.59985352 206.55615234 C143.92237061 206.09547363 143.2448877 205.63479492 142.546875 205.16015625 C141.93682617 204.74386963 141.32677734 204.32758301 140.69824219 203.89868164 C138.87829233 202.76613496 138.87829233 202.76613496 136 203 Z " fill="#7C1426" transform="translate(61,5)"/>
<path d="M0 0 C2.35913086 0.15234375 2.35913086 0.15234375 5 1 C6.29516602 3.37890625 6.29516602 3.37890625 7.25390625 6.5625 C7.81428589 8.32920044 7.81428589 8.32920044 8.38598633 10.1315918 C8.67283798 11.07752701 8.67283798 11.07752701 8.96548462 12.04257202 C13.25903128 26.1197778 18.95849626 39.20419839 25.63916016 52.32568359 C26.98164969 54.96393806 28.29466761 57.61542151 29.60546875 60.26953125 C33.35355257 67.73547241 37.5791851 74.41036708 42.5625 81.125 C43.17657715 81.95596191 43.7906543 82.78692383 44.42333984 83.64306641 C48.96684905 89.73755855 53.71317036 95.59663091 58.6953125 101.3359375 C60.86382925 103.84259585 62.94704029 106.39832294 65 109 C69.16444361 107.42611404 71.5914256 104.38066509 74.375 101.0625 C74.89175293 100.45204834 75.40850586 99.84159668 75.94091797 99.21264648 C82.69677951 91.11387361 88.89787368 82.59685713 95 74 C95.47743652 73.32791504 95.95487305 72.65583008 96.44677734 71.96337891 C104.60400385 60.37402227 111.55983526 48.09732451 117 35 C118.02704284 38.14381187 117.98464609 39.89270983 116.84765625 42.984375 C116.43132935 44.1276123 116.43132935 44.1276123 116.0065918 45.29394531 C115.53926636 46.50969238 115.53926636 46.50969238 115.0625 47.75 C114.7425708 48.59401367 114.4226416 49.43802734 114.09301758 50.30761719 C99.7991532 87.19098505 69.83004821 124.41841561 38.25 148.05859375 C35.88797453 150.09666087 35.11512109 151.32067026 34.1875 154.25 C33.795625 155.4875 33.40375 156.725 33 158 C36.22515763 159.73662334 39.51329166 160.8905928 43 162 C39.2373411 165.94864584 35.25279834 169.2548424 30.875 172.5 C29.8550293 173.26135254 29.8550293 173.26135254 28.81445312 174.03808594 C20.38449403 180.27503944 11.698279 186.14604683 3 192 C3.48210937 192.72445312 3.96421875 193.44890625 4.4609375 194.1953125 C5.09257813 195.16210938 5.72421875 196.12890625 6.375 197.125 C7.00148437 198.07632813 7.62796875 199.02765625 8.2734375 200.0078125 C13.28984649 208.70140817 13.06046253 218.9022508 11.60546875 228.640625 C9.88988912 234.26329888 5.77623413 237.89701895 1 241 C-8.07821552 245.47313236 -15.6858629 246.23961307 -25.33984375 243.12109375 C-31.04218069 240.71790623 -36.19321596 237.17248257 -41.07421875 233.39453125 C-42.98011069 232.0144026 -44.78482555 231.12103605 -46.9375 230.1875 C-51.21487681 228.0728418 -53.50279294 226.10830839 -56 222 C-56.37608702 216.92282519 -54.72027768 214.31608479 -51.5625 210.5625 C-49.69140625 208.50390625 -49.69140625 208.50390625 -48 207 C-47.34 207 -46.68 207 -46 207 C-45.72414063 206.41605469 -45.44828125 205.83210937 -45.1640625 205.23046875 C-40.25469207 195.82358782 -32.06990483 186.47616895 -23 181 C-20.0625 180.1875 -20.0625 180.1875 -18 180 C-17.9071875 178.453125 -17.9071875 178.453125 -17.8125 176.875 C-16.82631354 172.17164918 -15.57673496 170.19623124 -12 167 C-9.12560244 166.0474706 -7.11049981 166 -4 166 C-3.01 166.66 -2.02 167.32 -1 168 C-1 168.66 -1 169.32 -1 170 C5.44667189 164.76773123 11.82995987 159.4718774 18.15429688 154.09301758 C21.63032333 151.14220924 25.14345184 148.2442294 28.6875 145.375 C35.41341243 139.89790464 41.90674631 134.17653279 48 128 C47.47792969 127.51273437 46.95585938 127.02546875 46.41796875 126.5234375 C41.05816505 121.36075442 36.41445715 115.92126359 31.9831543 109.96240234 C29.79843263 107.07473476 27.84536551 104.87439728 25.00390625 102.56640625 C21.38755207 99.47675125 19.1333526 96.19000588 16.625 92.1875 C16.15239746 91.44266357 15.67979492 90.69782715 15.19287109 89.93041992 C0.07664425 65.69585997 -6.38526438 42.21796029 -3.125 13.6875 C-3.04668945 13.00091309 -2.96837891 12.31432617 -2.88769531 11.60693359 C-2.36152678 7.53971129 -1.41862884 3.84460337 0 0 Z M-27 218 C-27.91265625 218.70382813 -27.91265625 218.70382813 -28.84375 219.421875 C-30.25604206 221.00387142 -30.25604206 221.00387142 -29.890625 223.44921875 C-28.27319242 228.08160241 -25.26637886 230.69280418 -21 233 C-15.02194833 234.09088534 -9.90093989 233.88492029 -4.375 231.3125 C0.09023427 226.9647719 1.79403256 223.28200689 2 217 C0.94670852 211.7497471 -0.37915844 207.05944865 -4 203 C-11.6447006 203 -21.4240284 213.21465124 -27 218 Z " fill="#A7586A" transform="translate(61,5)"/>
<path d="M0 0 C1.3921875 1.2065625 1.3921875 1.2065625 2.8125 2.4375 C5.8570176 5.0496961 8.94855189 7.59606877 12.0625 10.125 C16.43262637 13.68584371 20.72980501 17.32012235 25 21 C32.17890831 27.18322878 39.37899048 33.36326254 47 39 C47.53625 38.505 48.0725 38.01 48.625 37.5 C51.75912943 35.52054983 53.34350241 35.41496039 57 36 C61.12237626 38.58658903 62.96631781 40.26058796 64.25 44.9375 C65.79773683 49.81742319 68.99362705 51.05433293 73.31640625 53.39453125 C81.20750527 58.11540708 86.60126887 65.84177642 91.859375 73.203125 C94.04773541 76.06236962 96.40806334 78.50595257 99 81 C101.77751241 83.85258031 102.88131014 85.46589563 103.75 89.375 C102.6320318 94.77851299 99.44247203 96.97242488 95 100 C93.0295127 101.08376802 91.04316714 102.04289387 88.99609375 102.97265625 C86.79274389 104.10666997 85.00171505 105.46014805 83.0625 107 C75.42520913 112.95015758 66.68504412 116.07611601 57 115 C49.6031808 112.99931475 41.95958799 109.45610282 37.6171875 102.91796875 C33.85187354 94.97921238 33.64291903 85.59605299 35.6953125 77.1328125 C37.88697562 71.22084728 41.31554431 66.08454885 45 61 C44.26152832 60.72704102 43.52305664 60.45408203 42.76220703 60.17285156 C40.16020811 59.06802544 38.1074421 57.85763705 35.8046875 56.234375 C35.01481445 55.68023926 34.22494141 55.12610352 33.41113281 54.55517578 C32.57420898 53.95946777 31.73728516 53.36375977 30.875 52.75 C30.00713867 52.13753418 29.13927734 51.52506836 28.24511719 50.89404297 C19.06897589 44.39193057 10.01816742 37.71887422 1 31 C1.33 30.34 1.66 29.68 2 29 C2.99 29.33 3.98 29.66 5 30 C8.1995837 28.98362036 8.1995837 28.98362036 11 27 C11.99664538 24.63713484 11.99664538 24.63713484 12 22 C10.86022386 19.87802751 10.86022386 19.87802751 9 18.0625 C8.360625 17.37414062 7.72125 16.68578125 7.0625 15.9765625 C5.1300806 14.12466057 3.13419106 12.54674891 1 10.9375 C-0.75 9.515625 -0.75 9.515625 -2 8 C-2 2 -2 2 0 0 Z M51 73 C47.05866498 79.61581235 44.60436203 85.22616606 46 93 C47.30523725 96.8792526 49.23499427 99.40712056 52.5 101.9375 C57.76041291 103.53441106 62.56806911 104.00117942 68 103 C72.1971555 100.67692324 75.30125809 98.06764083 76.859375 93.45703125 C77.29001399 90.66396848 77.29001399 90.66396848 74.5625 87.875 C70.58466303 84.22122307 66.17121379 81.14997023 61.75 78.0625 C61.04045166 77.56540527 60.33090332 77.06831055 59.59985352 76.55615234 C58.92237061 76.09547363 58.2448877 75.63479492 57.546875 75.16015625 C56.93682617 74.74386963 56.32677734 74.32758301 55.69824219 73.89868164 C53.87829233 72.76613496 53.87829233 72.76613496 51 73 Z " fill="#BA435E" transform="translate(146,135)"/>
<path d="M0 0 C2.35913086 0.15234375 2.35913086 0.15234375 5 1 C6.29516602 3.37890625 6.29516602 3.37890625 7.25390625 6.5625 C7.62749268 7.74030029 8.0010791 8.91810059 8.38598633 10.1315918 C8.57722076 10.76221527 8.7684552 11.39283875 8.96548462 12.04257202 C13.55557194 27.09204249 19.85937182 40.98471242 27 55 C27.95346052 56.9015235 28.90536906 58.80382627 29.85546875 60.70703125 C30.26821045 61.53307861 30.68095215 62.35912598 31.10620117 63.21020508 C31.54863159 64.09615356 31.54863159 64.09615356 32 65 C31.34 65 30.68 65 30 65 C24.51948379 55.51261749 19.38893039 46.05151117 15 36 C21.12831547 61.85719071 34.95266766 83.94603199 52 104 C53.39783949 105.67449522 54.79161459 107.35232234 56.18530273 109.03027344 C58.11907869 111.35724936 60.05946942 113.67865549 62 116 C58.0580583 120.88049925 53.88049925 125.0580583 49 129 C42.66605371 123.03702236 37.10885458 116.88840944 31.93237305 109.91162109 C29.76507195 107.03854419 27.83365417 104.86492545 25.0078125 102.5703125 C21.38992912 99.47866671 19.13461343 96.19201776 16.625 92.1875 C16.15239746 91.44266357 15.67979492 90.69782715 15.19287109 89.93041992 C0.07664425 65.69585997 -6.38526438 42.21796029 -3.125 13.6875 C-3.04668945 13.00091309 -2.96837891 12.31432617 -2.88769531 11.60693359 C-2.36152678 7.53971129 -1.41862884 3.84460337 0 0 Z " fill="#E40134" transform="translate(61,5)"/>
<path d="M0 0 C2.475 0.495 2.475 0.495 5 1 C5.31919939 2.31088682 5.62985947 3.62385248 5.9375 4.9375 C6.11152344 5.66839844 6.28554687 6.39929688 6.46484375 7.15234375 C12.66576462 40.14848475 3.64723608 68.69855972 -14.875 95.9375 C-15.35146973 96.64229492 -15.82793945 97.34708984 -16.31884766 98.07324219 C-17.49040005 99.75553593 -18.73860828 101.38397458 -20 103 C-20.66 103 -21.32 103 -22 103 C-20.29090548 98.18189937 -17.63452812 94.63282172 -14.55859375 90.59765625 C-12.81265638 87.68776064 -12.35601536 85.35044591 -12 82 C-12.61488281 81.89042969 -13.22976562 81.78085938 -13.86328125 81.66796875 C-15.07564453 81.43013672 -15.07564453 81.43013672 -16.3125 81.1875 C-17.51326172 80.96126953 -17.51326172 80.96126953 -18.73828125 80.73046875 C-21.3717525 79.87993486 -22.4558844 79.30368056 -24 77 C-25.02645648 71.14211904 -22.22669797 66.50616556 -19.75 61.375 C-13.68114777 49.65532843 -13.68114777 49.65532843 -11 37 C-11.49628906 38.09957031 -11.99257812 39.19914062 -12.50390625 40.33203125 C-16.4649363 48.99237245 -20.57234806 57.1468661 -26 65 C-27 62 -27 62 -25.59375 59.171875 C-24.90307183 58.02685241 -24.20456454 56.88653063 -23.5 55.75 C-15.02657789 41.42275209 -9.46802536 26.43212111 -3.97851562 10.76220703 C-2.70085226 7.15554952 -1.35996006 3.57635065 0 0 Z " fill="#E40134" transform="translate(189,5)"/>
<path d="M0 0 C0.886875 0.12375 1.77375 0.2475 2.6875 0.375 C3.1825 1.86 3.1825 1.86 3.6875 3.375 C2.553125 3.49875 1.41875 3.6225 0.25 3.75 C-0.925625 3.95625 -2.10125 4.1625 -3.3125 4.375 C-5.12890729 8.00781458 -4.40472977 11.6246396 -3.3125 15.375 C-0.95483554 19.28760031 1.85600325 22.79673487 4.6875 26.375 C11.02163646 34.96127387 13.90783619 41.77899575 14.0625 52.5625 C14.07651855 53.23998291 14.09053711 53.91746582 14.10498047 54.61547852 C14.06053103 59.26044475 13.09952283 62.42487566 10.6875 66.375 C4.99843961 71.90603094 -0.37365745 73.57234454 -8.125 73.875 C-18.20465727 73.6291547 -24.21326801 69.64705787 -31.37109375 62.9375 C-33.90569801 60.89757706 -36.42028518 60.09925686 -39.48046875 59.109375 C-42.57629792 57.86840296 -44.32282248 55.98645175 -46.3125 53.375 C-47.06457274 50.5171236 -46.71334701 49.11672479 -45.3203125 46.5390625 C-44.07025838 44.63680622 -42.94098359 42.96919973 -41.3125 41.375 C-40.29929687 41.18164062 -40.29929687 41.18164062 -39.265625 40.984375 C-38.29882812 40.68273437 -38.29882812 40.68273437 -37.3125 40.375 C-36.58426044 38.73430217 -35.9276636 37.06135582 -35.3125 35.375 C-29.80978253 27.77654288 -23.02042455 18.48707548 -14.3125 14.375 C-13.3225 14.375 -12.3325 14.375 -11.3125 14.375 C-8.53773488 21.8404395 -7.94448094 28.44214481 -8.3125 36.375 C-8.9725 36.375 -9.6325 36.375 -10.3125 36.375 C-10.35890625 37.2103125 -10.35890625 37.2103125 -10.40625 38.0625 C-12.00799688 42.14971618 -16.15612619 44.21448332 -19.65234375 46.6640625 C-23.04521358 49.08062941 -23.04521358 49.08062941 -25.2890625 52.5 C-25.32905661 55.69952867 -23.98116766 57.70513175 -22.3125 60.375 C-16.61593326 65.50191006 -12.961503 66.82875005 -5.3984375 66.69140625 C-1.05568888 66.24613709 2.23549753 65.05507227 5.6875 62.375 C10.0055897 56.80327136 10.55273895 50.21825351 9.6875 43.375 C7.31205245 36.57630528 3.14071483 30.94993141 -1.3125 25.375 C-9.37041183 15.09685593 -9.37041183 15.09685593 -9.25 9.4375 C-7.71821177 4.43365844 -5.59277797 0.63314468 0 0 Z " fill="#281B2D" transform="translate(54.3125,173.625)"/>
<path d="M0 0 C3.91603168 -0.45535252 5.54941106 -0.3204188 8.8125 2 C11.46504509 5.63777612 12.52128705 8.55703038 12 13 C9.69501452 19.35304456 5.17474768 24.3607032 0.93359375 29.5078125 C-4.17580593 36.09326097 -7.34820356 42.39476634 -7.30078125 50.8359375 C-6.85385541 54.05148186 -5.47649259 56.54444695 -3.875 59.3359375 C-3 61 -3 61 -3 63 C3.97636004 66.0778059 11.80077868 67.42773525 19.125 64.9375 C23.46930951 62.00981316 27.29605904 58.62377995 28.6875 53.4375 C27.65841116 49.78891231 25.57258492 47.76552879 23 45 C23.495 44.01 23.495 44.01 24 43 C22.948125 42.46375 21.89625 41.9275 20.8125 41.375 C16.38685214 38.86144746 13.29965819 35.59931639 11 31 C11.1570002 25.17891575 12.47495014 19.5918495 14 14 C23.82634047 15.38685012 30.97648996 25.79842252 37 33 C38.34349979 34.99318491 39.67822341 36.99234355 41 39 C43.36531836 41.48358428 45.75204901 43.79119916 48.375 46 C50 48 50 48 50.0625 50.4375 C48.36985274 54.51976691 45.93909942 57.07765683 41.9140625 58.9921875 C40.36681194 59.63115445 38.81860667 60.26781369 37.26953125 60.90234375 C34.26671703 62.35465149 32.07006355 64.30892009 29.62109375 66.54296875 C22.49660215 72.94642746 15.87665652 73.45505254 6.59765625 73.42578125 C0.25508039 72.67513981 -4.5455781 69.4544219 -9 65 C-12.40176315 56.69392814 -12.35367763 46.5106975 -9.04296875 38.1484375 C-5.87467013 31.62197967 -2.12174572 25.93102994 2.67578125 20.50390625 C6.66283319 15.97583842 7.32015621 12.78119578 7.203125 6.890625 C7.19891607 4.98974098 7.19891607 4.98974098 6 4 C3.67182036 3.63239269 1.3381615 3.29758419 -1 3 C-0.67 2.01 -0.34 1.02 0 0 Z " fill="#2F1A2E" transform="translate(197,174)"/>
<path d="M0 0 C4.12237626 2.58658903 5.96631781 4.26058796 7.25 8.9375 C8.79773683 13.81742319 11.99362705 15.05433293 16.31640625 17.39453125 C24.20750527 22.11540708 29.60126887 29.84177642 34.859375 37.203125 C37.04773541 40.06236962 39.40806334 42.50595257 42 45 C44.77751241 47.85258031 45.88131014 49.46589563 46.75 53.375 C45.6320318 58.77851299 42.44247203 60.97242488 38 64 C36.0295127 65.08376802 34.04316714 66.04289387 31.99609375 66.97265625 C29.79274389 68.10666997 28.00171505 69.46014805 26.0625 71 C18.42520913 76.95015758 9.68504412 80.07611601 0 79 C-7.3968192 76.99931475 -15.04041201 73.45610282 -19.3828125 66.91796875 C-23.15814736 58.95808441 -23.33781615 49.58425507 -21.3046875 41.09765625 C-19.26739423 35.54218007 -16.26542188 30.15463171 -12 26 C-10.33333333 25.66666667 -8.66666667 25.33333333 -7 25 C-3.90520213 21.91255319 -1.30673888 18.85476689 -0.58203125 14.47265625 C-1.14088247 11.1665551 -2.41041213 10.25107784 -5 8.1875 C-5.7425 7.58292969 -6.485 6.97835937 -7.25 6.35546875 C-7.8275 5.90816406 -8.405 5.46085938 -9 5 C-8.625 3.0625 -8.625 3.0625 -8 1 C-5.09704195 -0.45147903 -3.22738221 -0.37239025 0 0 Z M-6 3 C-6.33 3.99 -6.66 4.98 -7 6 C-5.865625 6.144375 -4.73125 6.28875 -3.5625 6.4375 C0 7 0 7 1 8 C1.93249952 15.34343372 0.3910435 18.77385324 -4.05859375 24.58984375 C-4.69925781 25.38519531 -5.33992188 26.18054688 -6 27 C-14.97010116 38.50283561 -17.87260709 47.18278948 -17 62 C-16.38841228 65.8845901 -14.99545661 68.2014469 -11.8671875 70.7109375 C-6.35536201 74.48591766 -2.99578479 76.15192097 3.75 76.1875 C4.96171875 76.20167969 6.1734375 76.21585937 7.421875 76.23046875 C13.35025012 75.84861926 17.40994286 74.00678538 22.1875 70.5625 C23.02667969 69.96566406 23.86585938 69.36882812 24.73046875 68.75390625 C26.9683876 67.11585296 26.9683876 67.11585296 28.55859375 65.36328125 C30.26423904 63.75008286 31.63904522 63.29491641 33.875 62.625 C37.90553273 61.19983926 40.3162185 59.41572191 43 56 C43.93496407 53.6012937 43.93496407 53.6012937 44 51 C42.78808179 48.84453397 42.78808179 48.84453397 40.875 47 C40.22144531 46.30648437 39.56789062 45.61296875 38.89453125 44.8984375 C37.46173109 43.46268311 36.01528252 42.04053168 34.5625 40.625 C32.25241579 38.25857227 30.28095573 35.8537894 28.25 33.25 C20.90827391 23.57755886 20.90827391 23.57755886 11 17 C10.01 17 9.02 17 8 17 C4.49849156 27.10893177 4.49849156 27.10893177 6.625 37.0625 C9.8673262 41.07274556 13.00079079 44.33359693 18 46 C17.505 46.99 17.505 46.99 17 48 C17.845625 48.845625 18.69125 49.69125 19.5625 50.5625 C21.68325701 53.1585991 21.99278882 53.920677 22.3125 57.4375 C20.48475566 62.39852036 17.30117827 65.03770991 13 68 C5.44177736 70.51940755 -1.69810913 68.43396362 -9 66 C-10.0625 63.75 -10.0625 63.75 -11 61 C-11.37125 60.236875 -11.7425 59.47375 -12.125 58.6875 C-14.25541123 52.14409407 -13.06006781 46.79794264 -10.40625 40.65625 C-7.27194936 34.73590435 -3.05636266 29.54883708 1.13671875 24.3515625 C4.28132448 20.38289867 6.33886817 17.08829615 6 11.9375 C5.24421872 7.70349948 3.54350949 5.51982897 0 3 C-3.21061788 2.58109782 -3.21061788 2.58109782 -6 3 Z M-6 37 C-9.94133502 43.61581235 -12.39563797 49.22616606 -11 57 C-9.69476275 60.8792526 -7.76500573 63.40712056 -4.5 65.9375 C0.76041291 67.53441106 5.56806911 68.00117942 11 67 C15.1971555 64.67692324 18.30125809 62.06764083 19.859375 57.45703125 C20.29001399 54.66396848 20.29001399 54.66396848 17.5625 51.875 C13.58466303 48.22122307 9.17121379 45.14997023 4.75 42.0625 C4.04045166 41.56540527 3.33090332 41.06831055 2.59985352 40.55615234 C1.92237061 40.09547363 1.2448877 39.63479492 0.546875 39.16015625 C-0.06317383 38.74386963 -0.67322266 38.32758301 -1.30175781 37.89868164 C-3.12170767 36.76613496 -3.12170767 36.76613496 -6 37 Z " fill="#E90134" transform="translate(203,171)"/>
<path d="M0 0 C0.8125 1.6875 0.8125 1.6875 1 4 C-1.13365528 6.42999629 -3.35255562 8.48204449 -5.875 10.5 C-7.21640958 11.98773621 -7.21640958 11.98773621 -7.0625 14.25 C-5.74284153 17.66558663 -3.76909931 19.80502638 -1.27734375 22.44921875 C0 24 0 24 0 26 C1.32 25.67 2.64 25.34 4 25 C13.09994951 36.13227157 15.09979636 44.84186208 14 59 C13.08580864 64.97330856 9.993518 68.74693499 5.375 72.45703125 C-2.03767613 77.27283235 -9.64917808 79.19344305 -18.328125 77.5625 C-26.18483693 75.5859687 -32.71605075 71.31582512 -39.07421875 66.39453125 C-40.98011069 65.0144026 -42.78482555 64.12103605 -44.9375 63.1875 C-49.21487681 61.0728418 -51.50279294 59.10830839 -54 55 C-54.37608702 49.92282519 -52.72027768 47.31608479 -49.5625 43.5625 C-47.69140625 41.50390625 -47.69140625 41.50390625 -46 40 C-45.34 40 -44.68 40 -44 40 C-43.72414063 39.41605469 -43.44828125 38.83210938 -43.1640625 38.23046875 C-38.25469207 28.82358782 -30.06990483 19.47616895 -21 14 C-18.0625 13.1875 -18.0625 13.1875 -16 13 C-15.9071875 11.453125 -15.9071875 11.453125 -15.8125 9.875 C-14.8003753 5.04794373 -13.44612929 3.44612929 -10 0 C-6.30581799 -1.231394 -3.7943739 -0.64432764 0 0 Z M-10.8125 4.625 C-13.06949981 7.7862701 -14.15316532 10.01770163 -14 14 C-11.77130528 20.3040222 -8.28676831 25.0730509 -3.77734375 29.91796875 C2.0289741 36.71965537 5.3413048 43.43312096 5.2109375 52.36328125 C4.89666233 56.29172084 4.0973623 59.63645231 2 63 C-3.74933362 67.67133357 -8.6878263 68.47139554 -15.9140625 68.41015625 C-20.79292791 67.76169945 -23.73792826 65.58827892 -27 62 C-30.14899468 57.22879594 -30.14899468 57.22879594 -29.75610352 53.98852539 C-28.84322818 51.58769567 -27.90620718 50.80445185 -25.83984375 49.30859375 C-25.21142578 48.83873047 -24.58300781 48.36886719 -23.93554688 47.88476562 C-23.27619141 47.40716797 -22.61683594 46.92957031 -21.9375 46.4375 C-19.53325952 44.69214758 -17.2747587 42.922538 -15 41 C-15 40.01 -15 39.02 -15 38 C-14.34 38 -13.68 38 -13 38 C-12.63198094 30.06714481 -13.22523488 23.4654395 -16 16 C-25.92070345 17.1764374 -32.9888439 28.04752821 -39.06640625 35.30078125 C-40.83007891 37.76279702 -41.38223965 39.14121541 -42 42 C-42.763125 42.28875 -43.52625 42.5775 -44.3125 42.875 C-48.03870135 44.43480522 -49.13614445 46.47938395 -51 50 C-51.91666667 52.5 -51.91666667 52.5 -51 55 C-47.98222875 58.49706433 -44.73309064 60.6858183 -40.5 62.5 C-37.42217357 63.81906847 -36.04950804 64.69553591 -33.6875 66.875 C-26.2759537 73.43389053 -19.3560386 75.85373421 -9.41796875 75.49609375 C-3.16804963 74.58896263 2.90858626 71.96393425 7 67 C9.1977153 62.85447683 9.35033387 58.85113904 9.3125 54.25 C9.30686035 53.5377124 9.3012207 52.8254248 9.29541016 52.09155273 C9.04018129 41.00425907 4.61278802 33.8293475 -2.1328125 25.3046875 C-6.72985329 19.38949881 -9.1204413 15.58780166 -9 8 C-8.67 7.34 -8.34 6.68 -8 6 C-5.67843403 5.59270772 -3.3431213 5.25561323 -1 5 C-1.495 3.515 -1.495 3.515 -2 2 C-6.31654329 1.39769163 -7.55315633 1.58294591 -10.8125 4.625 Z M-25 51 C-25.91265625 51.70382813 -25.91265625 51.70382813 -26.84375 52.421875 C-28.25604206 54.00387142 -28.25604206 54.00387142 -27.890625 56.44921875 C-26.27319242 61.08160241 -23.26637886 63.69280418 -19 66 C-13.02194833 67.09088534 -7.90093989 66.88492029 -2.375 64.3125 C2.09023427 59.9647719 3.79403256 56.28200689 4 50 C2.94670852 44.7497471 1.62084156 40.05944865 -2 36 C-9.6447006 36 -19.4240284 46.21465124 -25 51 Z " fill="#E90134" transform="translate(59,172)"/>
<path d="M0 0 C1.86261163 1.91834332 3.52234954 3.79805397 5.1875 5.875 C5.66292236 6.4527417 6.13834473 7.0304834 6.62817383 7.62573242 C8.09394729 9.41039646 9.54700775 11.20492455 11 13 C11.90517856 14.10374414 12.81138279 15.20664816 13.71875 16.30859375 C15.8205388 18.86599183 17.91394093 21.42976919 20 24 C16.0580583 28.88049925 11.88049925 33.0580583 7 37 C-0.00753942 30.40288046 -6.01018949 23.43525311 -11.84765625 15.80859375 C-13.72635755 13.22992877 -13.72635755 13.22992877 -15 12 C-15.375 8.6875 -15.375 8.6875 -15 5 C-11.19301996 0.85710995 -5.54272273 -2.35666861 0 0 Z " fill="#7B1123" transform="translate(103,97)"/>
<path d="M0 0 C0.56847656 0.23976562 1.13695313 0.47953125 1.72265625 0.7265625 C2.05265625 2.0465625 2.38265625 3.3665625 2.72265625 4.7265625 C1.91828125 5.3453125 1.11390625 5.9640625 0.28515625 6.6015625 C-2.31608894 8.46820291 -2.31608894 8.46820291 -3.27734375 10.7265625 C-2.51808594 10.90832031 -1.75882813 11.09007812 -0.9765625 11.27734375 C0.01730469 11.52871094 1.01117188 11.78007812 2.03515625 12.0390625 C3.02128906 12.28269531 4.00742188 12.52632812 5.0234375 12.77734375 C7.78668156 13.74907791 8.78574865 14.63052513 10.72265625 16.7265625 C-10.79748386 32.7265625 -10.79748386 32.7265625 -15.27734375 32.7265625 C-17.35546875 30.4609375 -17.35546875 30.4609375 -19.52734375 27.4765625 C-20.254375 26.50203125 -20.98140625 25.5275 -21.73046875 24.5234375 C-23.27734375 21.7265625 -23.27734375 21.7265625 -23.18359375 19.51953125 C-21.94186598 17.06283707 -20.0153469 15.66977418 -17.875 14 C-16.0918914 12.62760687 -16.0918914 12.62760687 -13.96484375 10.4140625 C-11.57599563 8.02521438 -9.17686727 5.6647382 -6.71484375 3.3515625 C-5.97105469 2.64257812 -5.22726563 1.93359375 -4.4609375 1.203125 C-2.27734375 -0.2734375 -2.27734375 -0.2734375 0 0 Z " fill="#B63F5B" transform="translate(74.27734375,165.2734375)"/>
<path d="M0 0 C1.32 0 2.64 0 4 0 C3.3503125 1.85625 3.3503125 1.85625 2.6875 3.75 C2.20866297 6.28839778 2.20866297 6.28839778 3 9 C5.37369469 11.95110572 8.27692238 14.3184825 11.23706055 16.66113281 C15.83005788 20.37470015 15.83005788 20.37470015 16.9140625 24.36328125 C16.94242188 25.23339844 16.97078125 26.10351562 17 27 C11.3064833 31.90275049 11.3064833 31.90275049 8 32 C2.45613412 30.01715746 -1.38996679 27.34101209 -5.75 23.4375 C-10.21003656 19.51200322 -10.21003656 19.51200322 -15 16 C-13.40506235 11.7769261 -10.23319314 9.22273196 -6.9375 6.3125 C-6.38255859 5.81427734 -5.82761719 5.31605469 -5.25585938 4.80273438 C-3.84016705 3.53188755 -2.42039183 2.26559214 -1 1 C-0.67 0.67 -0.34 0.34 0 0 Z " fill="#48192A" transform="translate(142,134)"/>
<path d="M0 0 C1.65 0 3.3 0 5 0 C4.01 0.495 4.01 0.495 3 1 C2.69686885 2.88614938 2.41163269 4.77757613 2.234375 6.6796875 C2 9 2 9 1.578125 11.3203125 C0.87237813 15.48421902 0.71398434 17.41696808 2.625 21.3125 C5.9836704 25.11310071 9.35248461 27.9344376 14 30 C13.67 30.66 13.34 31.32 13 32 C13.845625 32.845625 14.69125 33.69125 15.5625 34.5625 C17.70181455 37.17381231 17.99178164 37.88699755 18.25 41.4375 C16.29228394 47.01699077 12.61181424 50.45969929 7.5625 53.4375 C1.39085318 54.79225174 -5.13259684 54.41747083 -11 52 C-15.313398 48.64513489 -17.33243275 45.17823513 -19 40 C-20.33559808 28.36121676 -13.9097076 19.78558525 -7 11 C-6.29359375 10.13632813 -5.5871875 9.27265625 -4.859375 8.3828125 C-2.79752842 5.74053012 -1.41033441 3.03221899 0 0 Z M-11 21 C-14.94133502 27.61581235 -17.39563797 33.22616606 -16 41 C-14.69476275 44.8792526 -12.76500573 47.40712056 -9.5 49.9375 C-4.23958709 51.53441106 0.56806911 52.00117942 6 51 C10.1971555 48.67692324 13.30125809 46.06764083 14.859375 41.45703125 C15.29001399 38.66396848 15.29001399 38.66396848 12.5625 35.875 C8.58466303 32.22122307 4.17121379 29.14997023 -0.25 26.0625 C-0.95954834 25.56540527 -1.66909668 25.06831055 -2.40014648 24.55615234 C-3.07762939 24.09547363 -3.7551123 23.63479492 -4.453125 23.16015625 C-5.06317383 22.74386963 -5.67322266 22.32758301 -6.30175781 21.89868164 C-8.12170767 20.76613496 -8.12170767 20.76613496 -11 21 Z " fill="#EB0032" transform="translate(208,187)"/>
<path d="M0 0 C2.10760564 6.12209258 3.85102394 11.51094243 3 18 C0.87936905 22.2665075 -1.48843101 25.25331916 -6 27 C-12.37690866 27.82248236 -17.34106564 26.95248749 -23 24 C-22.66294936 18.11935332 -20.29451263 15.46615161 -16.375 11.4375 C-15.61123047 10.61088867 -15.61123047 10.61088867 -14.83203125 9.76757812 C-5.58585409 0 -5.58585409 0 0 0 Z " fill="#262130" transform="translate(43,188)"/>
<path d="M0 0 C9.65487575 1.36265028 17.28361111 11.72358295 23 19 C23.78515625 21.33203125 23.78515625 21.33203125 24 23 C18.21083026 26.06565962 12.61858315 28.61546474 6 27 C1.8561654 24.55316433 -1.2564683 21.53490018 -3 17 C-3.12977104 11.24681706 -1.50236909 5.50868666 0 0 Z " fill="#201E2D" transform="translate(211,188)"/>
<path d="M0 0 C3.04853293 3.65551152 5.59570074 7.43144476 8.0625 11.5 C8.73410156 12.6034375 9.40570313 13.706875 10.09765625 14.84375 C11.73511224 17.56051476 13.37022065 20.27862388 15 23 C14.22914062 23.26554687 13.45828125 23.53109375 12.6640625 23.8046875 C11.66117188 24.15789062 10.65828125 24.51109375 9.625 24.875 C8.62726563 25.22304687 7.62953125 25.57109375 6.6015625 25.9296875 C3.89557882 26.84782502 3.89557882 26.84782502 2 29 C1.35232207 31.57061311 1.35232207 31.57061311 1 34 C-3.26082628 30.06988767 -6.30926824 25.84177178 -9.375 20.9375 C-9.83777344 20.23044922 -10.30054687 19.52339844 -10.77734375 18.79492188 C-11.20917969 18.10849609 -11.64101562 17.42207031 -12.0859375 16.71484375 C-12.4782959 16.09730225 -12.8706543 15.47976074 -13.27490234 14.84350586 C-14.18760963 12.52301672 -13.81035576 11.31197243 -13 9 C-13 9.66 -13 10.32 -13 11 C-11.01712504 9.54648985 -9.03870613 8.08752713 -7.0625 6.625 C-6.21655273 6.00625 -6.21655273 6.00625 -5.35351562 5.375 C-2.19151048 3.1230631 -2.19151048 3.1230631 0 0 Z " fill="#BD062F" transform="translate(87,73)"/>
<path d="M0 0 C1 2 1 2 0.0625 5.125 C-0.4634375 6.548125 -0.4634375 6.548125 -1 8 C2.22515763 9.73662334 5.51329166 10.8905928 9 12 C7.82817486 13.17826374 6.65497186 14.35518319 5.47558594 15.52587891 C4.51070704 16.48979995 3.5551359 17.46315261 2.61035156 18.44677734 C-0.77456045 21.8912582 -4.32064359 25.48577321 -9 27 C-14.49875584 26.63480255 -19.34358236 23.74361537 -24 21 C-22.50533666 17.17467519 -20.41223355 15.60492884 -17.0625 13.3125 C-11.12640895 9.14310271 -5.56588082 4.65079404 0 0 Z " fill="#AC2945" transform="translate(95,155)"/>
<path d="M0 0 C4.84533025 1.31884729 7.93810376 3.25672916 11.75 6.5 C12.69359375 7.2940625 13.6371875 8.088125 14.609375 8.90625 C16.11467902 10.22462084 17.58507211 11.58507211 19 13 C19.12424822 19.21241103 16.67269078 22.06738824 12.49609375 26.49609375 C12.00238281 26.99238281 11.50867188 27.48867187 11 28 C7.83551687 27.37242183 5.58875502 26.28472005 2.890625 24.53125 C2.13652344 24.04269531 1.38242188 23.55414063 0.60546875 23.05078125 C-0.17183594 22.53902344 -0.94914063 22.02726562 -1.75 21.5 C-2.93916016 20.73236328 -2.93916016 20.73236328 -4.15234375 19.94921875 C-8.45937163 17.13964291 -8.45937163 17.13964291 -10 16 C-10 15.67 -10 15.34 -10 15 C-8.0509375 14.8453125 -8.0509375 14.8453125 -6.0625 14.6875 C-1.05827507 14.14736144 3.2809671 12.72282154 8 11 C4.7 8.69 1.4 6.38 -2 4 C-1.34 2.68 -0.68 1.36 0 0 Z " fill="#C56079" transform="translate(184,170)"/>
<path d="M0 0 C-0.33 0.66 -0.66 1.32 -1 2 C-2.093125 2.103125 -3.18625 2.20625 -4.3125 2.3125 C-8.05423174 2.67292745 -8.05423174 2.67292745 -10.3125 5.125 C-12.20228368 7.9640763 -12.20228368 7.9640763 -12.625 11.5 C-14.48342074 16.23052551 -16.80316524 16.59532359 -21.27734375 18.578125 C-29.1310217 22.67961535 -34.34275152 30.49508552 -39.2734375 37.6171875 C-40.73941127 39.64036396 -42.17693636 41.30715519 -44 43 C-48.29718839 47.08236684 -48.29718839 47.08236684 -50.5625 52.4375 C-49.85863359 55.64400254 -48.3465587 56.93573718 -45.7734375 58.88671875 C-43.79601706 60.1955261 -43.79601706 60.1955261 -40.5625 61.4375 C-37.47451613 62.79187889 -36.06330404 63.68323712 -33.6875 65.875 C-27.07275179 71.79733581 -19.88031135 74.42902057 -11.15234375 75.54296875 C-10.08693359 75.76919922 -10.08693359 75.76919922 -9 76 C-8.67 76.66 -8.34 77.32 -8 78 C-20.31931378 78.68440632 -29.46745726 73.8302732 -39.07421875 66.39453125 C-40.98011069 65.0144026 -42.78482555 64.12103605 -44.9375 63.1875 C-49.21487681 61.0728418 -51.50279294 59.10830839 -54 55 C-54.37608702 49.92282519 -52.72027768 47.31608479 -49.5625 43.5625 C-47.69140625 41.50390625 -47.69140625 41.50390625 -46 40 C-45.34 40 -44.68 40 -44 40 C-43.72414063 39.41605469 -43.44828125 38.83210938 -43.1640625 38.23046875 C-38.25469207 28.82358782 -30.06990483 19.47616895 -21 14 C-18.0625 13.1875 -18.0625 13.1875 -16 13 C-15.9071875 11.453125 -15.9071875 11.453125 -15.8125 9.875 C-14.8003753 5.04794373 -13.44612929 3.44612929 -10 0 C-6.30581799 -1.231394 -3.7943739 -0.64432764 0 0 Z " fill="#EB0132" transform="translate(59,172)"/>
<path d="M0 0 C7.05783818 5.25878139 14.03098109 10.62450675 21 16 C18.46963112 19.79555331 16.21925236 20.4455386 12 22 C11.01 22 10.02 22 9 22 C8.67 22.99 8.34 23.98 8 25 C1.73 20.38 -4.54 15.76 -11 11 C-10.67 10.34 -10.34 9.68 -10 9 C-9.01 9.33 -8.02 9.66 -7 10 C-3.8004163 8.98362036 -3.8004163 8.98362036 -1 7 C-0.14476234 4.49537541 0 2.61906238 0 0 Z " fill="#AD2B47" transform="translate(158,155)"/>
<path d="M0 0 C1.55666819 3.11333639 0.68456812 6.21461759 0.25 9.5625 C0.15710693 10.28542236 0.06421387 11.00834473 -0.03149414 11.75317383 C-1.47933629 22.23856191 -4.84770572 30.13247629 -12 38 C-13.485 38.495 -13.485 38.495 -15 39 C-15.59604124 16.19072819 -15.59604124 16.19072819 -9.75 9.9375 C-8.1953596 8.59113678 -6.61418935 7.27436001 -5 6 C-3.9459525 4.82052808 -2.91840185 3.61596805 -1.9375 2.375 C-1.298125 1.59125 -0.65875 0.8075 0 0 Z " fill="#9E0D2A" transform="translate(136,115)"/>
<path d="M0 0 C0.33 0 0.66 0 1 0 C1.33 2.31 1.66 4.62 2 7 C5.63 7.99 9.26 8.98 13 10 C13.59567545 15.52048517 11.75364464 18.59431432 8.5625 22.875 C8.14162109 23.46796875 7.72074219 24.0609375 7.28710938 24.671875 C6.22852572 26.14203598 5.11851165 27.57490198 4 29 C3.67 29 3.34 29 3 29 C2.34 25.7 1.68 22.4 1 19 C-1.31 18.67 -3.62 18.34 -6 18 C-6 18.33 -6 18.66 -6 19 C-7.98 19 -9.96 19 -12 19 C-11.55269531 18.29875 -11.10539063 17.5975 -10.64453125 16.875 C-10.03996094 15.92625 -9.43539062 14.9775 -8.8125 14 C-8.17699219 13.00355469 -7.54148438 12.00710937 -6.88671875 10.98046875 C-5.27687236 8.43737807 -3.69644963 5.87935468 -2.125 3.3125 C-1.073125 1.6728125 -1.073125 1.6728125 0 0 Z " fill="#BA072E" transform="translate(164,77)"/>
<path d="M0 0 C5.54094166 3.79950285 11.62361219 8.05984654 15 14 C14.7544429 17.18751999 14.50638369 18.51107782 12.1875 20.75 C8.5 22.85714286 8.5 22.85714286 6 23 C2.3125 21.75 2.3125 21.75 -1 20 C-1.97961897 17.06114308 -2.03775226 15.94241475 -1.66015625 12.98828125 C-1.56669922 12.23095703 -1.47324219 11.47363281 -1.37695312 10.69335938 C-1.27318359 9.90767578 -1.16941406 9.12199219 -1.0625 8.3125 C-0.96259766 7.51521484 -0.86269531 6.71792969 -0.75976562 5.89648438 C-0.51251153 3.93022565 -0.25704363 1.96500294 0 0 Z " fill="#7F1D2F" transform="translate(144,143)"/>
<path d="M0 0 C5.17609824 3.28157862 9.85989729 6.45924219 14 11 C7.03593947 13.48928121 -0.71846847 16.05159093 -7.9609375 13.23828125 C-9.625 12.25 -9.625 12.25 -12 10 C-12 8.68 -12 7.36 -12 6 C-11.21753906 5.65066406 -10.43507812 5.30132812 -9.62890625 4.94140625 C-8.61699219 4.48636719 -7.60507813 4.03132812 -6.5625 3.5625 C-5.55316406 3.11003906 -4.54382813 2.65757812 -3.50390625 2.19140625 C-1.1139529 1.22551798 -1.1139529 1.22551798 0 0 Z " fill="#B23652" transform="translate(179,171)"/>
<path d="M0 0 C3.36720387 1.39332574 4.9859524 2.9789286 7 6 C10.36720387 4.60667426 11.9859524 3.0210714 14 0 C14.99 0.33 15.98 0.66 17 1 C17.53256094 4.65184645 17.77811405 6.83514474 15.6875 9.96484375 C13.84845547 12.03787386 11.9368257 14.01821896 10 16 C8.70065478 17.49335354 7.40863649 18.99312238 6.125 20.5 C5.10676872 21.68717548 4.07211784 22.86125337 3 24 C2.67 24 2.34 24 2 24 C0.75 16.375 0.75 16.375 3 13 C2.319375 12.154375 1.63875 11.30875 0.9375 10.4375 C-1.37757467 6.33010946 -1.07763474 4.49014476 0 0 Z " fill="#B53C58" transform="translate(119,108)"/>
<path d="M0 0 C2.01953125 1.96875 2.01953125 1.96875 3.8125 4.5 C4.41707031 5.3353125 5.02164063 6.170625 5.64453125 7.03125 C6.09183594 7.6809375 6.53914063 8.330625 7 9 C4.39457314 10.73695124 2.32409376 11.66574402 -0.5625 12.75 C-4.15179272 14.28826831 -4.79417292 14.57187968 -6.5625 18.25 C-6.706875 19.1575 -6.85125 20.065 -7 21 C-10.40843742 18.11593757 -11.86591384 16.6291735 -12.8125 12.1875 C-12.874375 11.135625 -12.93625 10.08375 -13 9 C-9.25 6 -9.25 6 -7 6 C-7 4.35 -7 2.7 -7 1 C-4.39730937 -0.30134532 -2.88755921 -0.37982842 0 0 Z " fill="#AD092C" transform="translate(95,86)"/>
<path d="M0 0 C0.59257828 3.16041751 0.70667725 5.84939726 0 9 C-2.56207111 12.23817321 -5.69741095 14.55033185 -9 17 C-10.68777391 18.3329866 -12.37528954 19.6663003 -14.0625 21 C-15.37252853 22.00323552 -16.68407989 23.00450488 -18 24 C-20.2477975 21.94766315 -21.0022242 20.99332739 -22 18 C-2.59836066 0 -2.59836066 0 0 0 Z " fill="#BB445F" transform="translate(96,146)"/>
<path d="M0 0 C0.66 0 1.32 0 2 0 C1.5206753 4.31392226 0.2542015 6.16569547 -3 9 C-2.13375 8.690625 -1.2675 8.38125 -0.375 8.0625 C2.76150738 7.07508101 5.75067413 6.46418941 9 6 C9.8125 8.1875 9.8125 8.1875 10 11 C7.55487693 13.92056367 5.16656091 15.88895939 2 18 C-1.1875 18.125 -1.1875 18.125 -4 18 C-4.37125 16.6078125 -4.37125 16.6078125 -4.75 15.1875 C-6.06454245 11.83541675 -6.97963384 10.8122197 -10 9 C-7.65879476 5.48819215 -5.70618369 4.85309185 -2 3 C-1.34 2.01 -0.68 1.02 0 0 Z " fill="#1E1B2B" transform="translate(237,215)"/>
<path d="M0 0 C4.13937592 3.30015998 7.58662205 6.17324411 10 11 C8.5682384 11.69937202 7.12932968 12.38412718 5.6875 13.0625 C4.88699219 13.44535156 4.08648437 13.82820312 3.26171875 14.22265625 C1 15 1 15 -2 14 C-0.73046875 12.53515625 0.5390625 11.0703125 1.80859375 9.60546875 C3.20871231 7.89287029 3.20871231 7.89287029 4 5 C3.39865234 5.61488281 3.39865234 5.61488281 2.78515625 6.2421875 C-1.82909676 10.61578785 -5.72868138 12.17520073 -12 13 C-12.99 11.35 -13.98 9.7 -15 8 C-14.67 7.67 -14.34 7.34 -14 7 C-14.99 6.34 -15.98 5.68 -17 5 C-16.27554688 4.89042969 -15.55109375 4.78085938 -14.8046875 4.66796875 C-9.33712777 3.77128895 -4.77713197 2.84045685 0 0 Z " fill="#761124" transform="translate(235,210)"/>
<path d="M0 0 C0.33 1.32 0.66 2.64 1 4 C0.34 4 -0.32 4 -1 4 C-1.0515625 4.55945313 -1.103125 5.11890625 -1.15625 5.6953125 C-3.11133511 11.03559127 -9.18085281 14.36443717 -14 17 C-18.52586161 17.61684791 -21.47883768 16.0845324 -25.109375 13.49609375 C-26.83140933 12.06680526 -28.43614707 10.59905219 -30 9 C-29.34 8.67 -28.68 8.34 -28 8 C-27.27840576 6.35636866 -26.60648579 4.68949614 -26 3 C-25.67 3.99 -25.34 4.98 -25 6 C-18.70649024 8.5441848 -11.4490428 9.3942939 -5.0625 6.8125 C-2.736195 4.76817137 -1.40945439 2.74472697 0 0 Z " fill="#771124" transform="translate(45,206)"/>
<path d="M0 0 C1.65 0 3.3 0 5 0 C4.01 0.495 4.01 0.495 3 1 C2.69686885 2.88614938 2.41163269 4.77757613 2.234375 6.6796875 C2 9 2 9 1.578125 11.3203125 C0.87237813 15.48421902 0.71398434 17.41696808 2.625 21.3125 C5.9836704 25.11310071 9.35248461 27.9344376 14 30 C13.34 31.32 12.68 32.64 12 34 C11.28714844 33.40832031 10.57429688 32.81664062 9.83984375 32.20703125 C4.67541147 27.94620085 -0.48580969 23.79866444 -6 20 C-5.67 17.69 -5.34 15.38 -5 13 C-5.99 12.67 -6.98 12.34 -8 12 C-7.236875 11.13375 -6.47375 10.2675 -5.6875 9.375 C-3.24779927 6.46399345 -1.57001723 3.47056439 0 0 Z " fill="#C50533" transform="translate(208,187)"/>
<path d="M0 0 C0.66 0.33 1.32 0.66 2 1 C2 1.66 2 2.32 2 3 C1.01 3.66 0.02 4.32 -1 5 C0.78810766 5.69670416 2.58062052 6.38211189 4.375 7.0625 C5.87160156 7.63677734 5.87160156 7.63677734 7.3984375 8.22265625 C9.95231831 9.30907481 9.95231831 9.30907481 12 8 C14.3329866 7.95977609 16.66706666 7.95679753 19 8 C15.90797914 10.59330782 12.69688268 12.96315744 9.375 15.25 C8.61960937 15.77078125 7.86421875 16.2915625 7.0859375 16.828125 C5 18 5 18 2 18 C-0.078125 15.734375 -0.078125 15.734375 -2.25 12.75 C-2.97703125 11.77546875 -3.7040625 10.8009375 -4.453125 9.796875 C-6 7 -6 7 -5.88671875 4.75390625 C-4.53845766 2.08708145 -2.65326901 1.22956369 0 0 Z " fill="#CA738B" transform="translate(57,180)"/>
<path d="M0 0 C12.62270564 11.83378654 12.62270564 11.83378654 13.2890625 17.42578125 C13 19.625 13 19.625 12 23 C8.79727292 21.61995606 6.98416533 20.11447857 4.80078125 17.41015625 C4.23166016 16.70826172 3.66253906 16.00636719 3.07617188 15.28320312 C2.49416016 14.55037109 1.91214844 13.81753906 1.3125 13.0625 C0.71888672 12.33353516 0.12527344 11.60457031 -0.48632812 10.85351562 C-4.86420962 5.40737114 -4.86420962 5.40737114 -6 2 C-4.02 1.34 -2.04 0.68 0 0 Z " fill="#9E5968" transform="translate(107,92)"/>
<path d="M0 0 C0.66 0 1.32 0 2 0 C2.33 2.31 2.66 4.62 3 7 C3.99 7.33 4.98 7.66 6 8 C6.66 7.505 7.32 7.01 8 6.5 C8.66 6.005 9.32 5.51 10 5 C13 6 13 6 14 8 C14.66 7.67 15.32 7.34 16 7 C16.66 7.33 17.32 7.66 18 8 C17.04755606 10.38110985 16.42692089 11.73258802 14.22265625 13.11328125 C9.70197743 14.91678581 4.4189196 14.74066034 -0.20703125 13.32421875 C-1.8383696 12.62317518 -3.42578705 11.8213285 -5 11 C-4.54961229 6.15833214 -3.40027839 3.50331713 0 0 Z " fill="#1E1D2C" transform="translate(25,201)"/>
<path d="M0 0 C1.11880314 1.67820471 2.23338272 3.35931357 3.33203125 5.05078125 C6.32164718 9.61803092 9.41269662 13.88515201 13 18 C2.89473684 26 2.89473684 26 -1 26 C-1 25.34 -1 24.68 -1 24 C-0.34 24 0.32 24 1 24 C0.59378936 15.97383806 -0.59847776 8.67278805 -3 1 C-2.01 0.67 -1.02 0.34 0 0 Z " fill="#D00435" transform="translate(45,186)"/>
<path d="M0 0 C0.33 0 0.66 0 1 0 C1.48828125 1.98567708 1.9765625 3.97135417 2.46484375 5.95703125 C2.91010705 7.65683202 3.44433985 9.33301954 4 11 C5.8653245 12.01754868 5.8653245 12.01754868 8.0625 12.6875 C8.79597656 12.93886719 9.52945313 13.19023438 10.28515625 13.44921875 C10.85105469 13.63097656 11.41695312 13.81273438 12 14 C12.99 12.68 13.98 11.36 15 10 C14.41892368 13.7602985 13.34800504 16.53035032 11.4375 19.8125 C10.98246094 20.60269531 10.52742187 21.39289063 10.05859375 22.20703125 C9.70925781 22.79871094 9.35992187 23.39039062 9 24 C8.67 24 8.34 24 8 24 C8 22.35 8 20.7 8 19 C7.38511719 18.89042969 6.77023438 18.78085938 6.13671875 18.66796875 C4.92435547 18.43013672 4.92435547 18.43013672 3.6875 18.1875 C2.88699219 18.03667969 2.08648437 17.88585937 1.26171875 17.73046875 C-1.28006857 16.90954607 -2.37458374 16.09863871 -4 14 C-4.89690653 8.4904313 -2.64238422 4.6477651 0 0 Z " fill="#CB0531" transform="translate(169,68)"/>
<path d="M0 0 C1.67542976 0.28604898 3.34385343 0.61781233 5 1 C4.85562749 7.92988052 1.77744657 11.19760593 -3 16 C-7.07453229 15.37695259 -9.89539701 13.23467379 -13.25 10.9375 C-14.32765625 10.20402344 -15.4053125 9.47054687 -16.515625 8.71484375 C-17.33546875 8.14894531 -18.1553125 7.58304688 -19 7 C-16.51931873 5.75965936 -15.56811006 6.1464334 -12.875 6.625 C-7.78765095 7.29286916 -4.6253213 6.10241877 0 4 C-0.33 3.01 -0.66 2.02 -1 1 C-0.67 0.67 -0.34 0.34 0 0 Z " fill="#CE6F88" transform="translate(198,182)"/>
<path d="M0 0 C2.33002055 2.33002055 2.41956957 3.24690495 2.8125 6.4375 C2.92207031 7.21996094 3.03164062 8.00242188 3.14453125 8.80859375 C2.95962849 11.61211939 2.0460732 12.17731941 0 14 C-0.33 14.99 -0.66 15.98 -1 17 C-2.32 16.34 -3.64 15.68 -5 15 C-4.67 14.34 -4.34 13.68 -4 13 C-4.99 12.67 -5.98 12.34 -7 12 C-7 10.68 -7 9.36 -7 8 C-7.99 7.34 -8.98 6.68 -10 6 C-10.1875 3.375 -10.1875 3.375 -10 1 C-6.24391637 -0.82438348 -4.01050192 -1.30070333 0 0 Z " fill="#96979A" transform="translate(223,197)"/>
<path d="M0 0 C2.38671875 0.53125 2.38671875 0.53125 4.38671875 3.53125 C4.55171875 4.5625 4.71671875 5.59375 4.88671875 6.65625 C5.05171875 7.605 5.21671875 8.55375 5.38671875 9.53125 C6.04671875 9.86125 6.70671875 10.19125 7.38671875 10.53125 C7.38671875 11.19125 7.38671875 11.85125 7.38671875 12.53125 C8.37671875 12.86125 9.36671875 13.19125 10.38671875 13.53125 C7.63671875 20.40625 7.63671875 20.40625 5.38671875 21.53125 C4.72671875 18.23125 4.06671875 14.93125 3.38671875 11.53125 C1.07671875 11.20125 -1.23328125 10.87125 -3.61328125 10.53125 C-3.61328125 10.86125 -3.61328125 11.19125 -3.61328125 11.53125 C-5.59328125 11.53125 -7.57328125 11.53125 -9.61328125 11.53125 C-8.57329614 9.68505165 -7.50546725 7.85451506 -6.42578125 6.03125 C-5.83410156 5.0103125 -5.24242187 3.989375 -4.6328125 2.9375 C-2.61328125 0.53125 -2.61328125 0.53125 0 0 Z " fill="#A40C2C" transform="translate(161.61328125,84.46875)"/>
<path d="M0 0 C1.21236328 0.04060547 1.21236328 0.04060547 2.44921875 0.08203125 C3.06410156 0.11683594 3.67898437 0.15164062 4.3125 0.1875 C4.3125 0.8475 4.3125 1.5075 4.3125 2.1875 C4.9725 2.5175 5.6325 2.8475 6.3125 3.1875 C5.3225 3.5175 4.3325 3.8475 3.3125 4.1875 C4.37895115 5.48383621 4.37895115 5.48383621 6.875 5.25 C7.679375 5.229375 8.48375 5.20875 9.3125 5.1875 C8.9825 6.5075 8.6525 7.8275 8.3125 9.1875 C7.6525 9.1875 6.9925 9.1875 6.3125 9.1875 C5.3225 10.6725 5.3225 10.6725 4.3125 12.1875 C3.6525 11.1975 2.9925 10.2075 2.3125 9.1875 C1.735 9.496875 1.1575 9.80625 0.5625 10.125 C-1.57121067 11.1325856 -3.3489904 11.87569872 -5.6875 12.1875 C-7.6875 10.1875 -7.6875 10.1875 -8 6.75 C-7.6875 3.1875 -7.6875 3.1875 -6.4609375 1.4765625 C-4.16445154 -0.19268941 -2.80776158 -0.12207659 0 0 Z " fill="#696C72" transform="translate(34.6875,197.8125)"/>
<path d="M0 0 C2.13265053 3.1989758 3.65963865 6.49131134 5.1875 10 C5.47302734 10.6290625 5.75855469 11.258125 6.05273438 11.90625 C8.11727722 16.64816835 8.11727722 16.64816835 7 20 C0.73 15.38 -5.54 10.76 -12 6 C-11.67 5.34 -11.34 4.68 -11 4 C-10.01 4.33 -9.02 4.66 -8 5 C-4.82241307 3.63817703 -2.45140787 2.45140787 0 0 Z " fill="#872A3B" transform="translate(159,160)"/>
<path d="M0 0 C0.67095703 0.58007812 0.67095703 0.58007812 1.35546875 1.171875 C1.96003906 1.69265625 2.56460938 2.2134375 3.1875 2.75 C3.82171875 3.306875 4.4559375 3.86375 5.109375 4.4375 C7.08808662 6.15381901 7.08808662 6.15381901 9.9375 7.75 C12.47157363 10.51444396 12.30220894 11.58638226 12.3125 15.25 C12.23234745 16.83473048 12.1357675 18.41906283 12 20 C10.33719424 18.57473792 8.6770088 17.14753631 7.02734375 15.70703125 C5.03410637 13.98610424 5.03410637 13.98610424 2.94140625 12.51171875 C1.05058887 11.10026352 -0.53811884 9.85476172 -2 8 C-2 2 -2 2 0 0 Z " fill="#9C5C6A" transform="translate(146,135)"/>
<path d="M0 0 C2.31 0 4.62 0 7 0 C6.66822662 5.42242118 3.45169841 8.45121065 0 12.3125 C-0.55945313 12.95767578 -1.11890625 13.60285156 -1.6953125 14.26757812 C-3.10062286 15.87146495 -4.54694693 17.43923515 -6 19 C-6.33 19 -6.66 19 -7 19 C-9.10952108 14.16568085 -9.10952108 14.16568085 -9 11 C-6.74760584 7.55869077 -3.9232465 4.86966357 -1 2 C-0.67 1.34 -0.34 0.68 0 0 Z " fill="#9C5A69" transform="translate(143,96)"/>
<path d="M0 0 C2.69489766 1.34744883 2.99521294 2.75753165 4.2421875 5.48046875 C4.66886719 6.39763672 5.09554687 7.31480469 5.53515625 8.25976562 C5.97730469 9.22591797 6.41945313 10.19207031 6.875 11.1875 C10.13546528 18.54325787 10.13546528 18.54325787 14.3359375 25.37109375 C16.21223644 28.33529373 16.36634458 29.48510482 15.75 32.875 C15.55664062 34.04675781 15.55664062 34.04675781 15.359375 35.2421875 C15.24078125 35.82226562 15.1221875 36.40234375 15 37 C12.27456635 33.67166739 10.42418135 30.06791009 8.625 26.1875 C8.32263428 25.53749023 8.02026855 24.88748047 7.70874023 24.21777344 C0 7.23939024 0 7.23939024 0 0 Z " fill="#E13961" transform="translate(75,40)"/>
<path d="M0 0 C2.0625 2.3125 2.0625 2.3125 4 5 C2.58257497 9.25227508 -0.16533225 10.85663896 -4 13 C-7.4375 13.8125 -7.4375 13.8125 -10 14 C-9.67 15.98 -9.34 17.96 -9 20 C-12.2910841 16.39042389 -13.54663921 13.87362847 -14 9 C-13.67 9.66 -13.34 10.32 -13 11 C-11.01712504 9.54648985 -9.03870613 8.08752713 -7.0625 6.625 C-6.21655273 6.00625 -6.21655273 6.00625 -5.35351562 5.375 C-2.19151048 3.1230631 -2.19151048 3.1230631 0 0 Z " fill="#C90632" transform="translate(87,73)"/>
<path d="M0 0 C4.82755081 0.43886826 8.79671928 2.75755495 13 5 C13.04254356 6.99954746 13.04080783 9.00041636 13 11 C12 12 12 12 9.375 12.4375 C4.67694173 11.82849245 1.96205789 9.64692677 -1 6 C-1.5 3.1875 -1.5 3.1875 -1 1 C-0.67 0.67 -0.34 0.34 0 0 Z " fill="#1B1B2B" transform="translate(9,221)"/>
<path d="M0 0 C1.05713529 3.19916631 0.95719677 4.95196786 -0.22265625 8.08984375 C-0.51132568 8.8686792 -0.79999512 9.64751465 -1.09741211 10.44995117 C-1.41589111 11.27084229 -1.73437012 12.0917334 -2.0625 12.9375 C-2.38033447 13.77837158 -2.69816895 14.61924316 -3.02563477 15.4855957 C-5.70615427 22.47573492 -8.70449801 29.27621022 -12 36 C-12.33 36 -12.66 36 -13 36 C-13 34.02 -13 32.04 -13 30 C-13.66 29.67 -14.32 29.34 -15 29 C-14.72325439 28.51233154 -14.44650879 28.02466309 -14.16137695 27.5222168 C-9.05899488 18.5057077 -4.00490329 9.56961102 0 0 Z " fill="#DE3B62" transform="translate(178,40)"/>
<path d="M0 0 C1.65 0.33 3.3 0.66 5 1 C5.33 1.99 5.66 2.98 6 4 C9.54220546 5.82170566 13.07765636 6.45269624 17 7 C16.67 7.99 16.34 8.98 16 10 C13.5625 11.125 13.5625 11.125 11 12 C10.01 12.495 10.01 12.495 9 13 C9 12.34 9 11.68 9 11 C8.13375 10.731875 7.2675 10.46375 6.375 10.1875 C3.08208036 9.02888013 0.08872125 7.61790161 -3 6 C-2.01 4.02 -1.02 2.04 0 0 Z " fill="#1E1B2A" transform="translate(13,215)"/>
<path d="M0 0 C0.804375 0.433125 0.804375 0.433125 1.625 0.875 C4.35280484 2.16711808 7.12612718 3.08558592 10 4 C5.3126338 9.17226615 -0.31728181 12.98925493 -6 17 C-6.33 16.34 -6.66 15.68 -7 15 C-6.07421875 12.79296875 -6.07421875 12.79296875 -4.6875 10.1875 C-2.92195996 6.84359752 -1.35125055 3.53355191 0 0 Z " fill="#872D3E" transform="translate(94,163)"/>
<path d="M0 0 C0.53625 0.2475 1.0725 0.495 1.625 0.75 C1.625 2.75 1.625 2.75 -0.375 4.875 C-1.035 5.49375 -1.695 6.1125 -2.375 6.75 C2.17991614 8.95399168 6.65406176 9.33846263 11.625 9.75 C11.625 9.42 11.625 9.09 11.625 8.75 C13.275 8.75 14.925 8.75 16.625 8.75 C14.22990662 11.64932357 12.31254757 12.25168276 8.625 12.75 C8.625 13.08 8.625 13.41 8.625 13.75 C2.57698929 13.20018084 -2.68101106 11.84570426 -8.375 9.75 C-7.715 8.76 -7.055 7.77 -6.375 6.75 C-5.715 6.75 -5.055 6.75 -4.375 6.75 C-6.21688612 4.69729537 -6.21688612 4.69729537 -8.375 3.75 C-2.95961538 -0.31153846 -2.95961538 -0.31153846 0 0 Z " fill="#C5627B" transform="translate(63.375,176.25)"/>
<path d="M0 0 C2.29221313 1.81796214 3.36368446 3.91941777 4.8125 6.4375 C4.05324219 6.70304687 3.29398438 6.96859375 2.51171875 7.2421875 C1.02091797 7.77199219 1.02091797 7.77199219 -0.5 8.3125 C-1.97919922 8.83457031 -1.97919922 8.83457031 -3.48828125 9.3671875 C-6.34344377 10.39055924 -6.34344377 10.39055924 -9.1875 12.4375 C-9.3125 4.8125 -9.3125 4.8125 -8.1875 1.4375 C-5.20975315 0.0478848 -3.24243888 -0.83377 0 0 Z " fill="#990D29" transform="translate(97.1875,89.5625)"/>
<path d="M0 0 C0.57878906 0.22945312 1.15757813 0.45890625 1.75390625 0.6953125 C2.08390625 2.0153125 2.41390625 3.3353125 2.75390625 4.6953125 C-6.66941214 12.48275645 -6.66941214 12.48275645 -10.53515625 13.00390625 C-12.43359375 12.6953125 -12.43359375 12.6953125 -15.24609375 11.6953125 C-13.6021834 10.00002995 -11.93977778 8.34025742 -10.24609375 6.6953125 C-9.59511719 6.05980469 -8.94414063 5.42429688 -8.2734375 4.76953125 C-7.58378906 4.12628906 -6.89414063 3.48304688 -6.18359375 2.8203125 C-5.53261719 2.20414063 -4.88164063 1.58796875 -4.2109375 0.953125 C-2.24609375 -0.3046875 -2.24609375 -0.3046875 0 0 Z " fill="#C35570" transform="translate(74.24609375,165.3046875)"/>
<path d="M0 0 C1.53445094 3.06890187 0.54984289 5.70094266 0 9 C-3 10 -3 10 -6 10 C-7.65 13.96 -9.3 17.92 -11 22 C-11.66 22 -12.32 22 -13 22 C-13 23.98 -13 25.96 -13 28 C-13.33 28 -13.66 28 -14 28 C-14.71100757 18.40139779 -11.27588985 11.17020175 -5.5625 3.59375 C-3.84689032 1.84382813 -2.23821653 0.9647485 0 0 Z " fill="#EE0034" transform="translate(203,199)"/>
<path d="M0 0 C0.99 0.680625 0.99 0.680625 2 1.375 C5.65206954 3.35320433 8.95052557 4.10774292 13 5 C12.01 7.31 11.02 9.62 10 12 C2.575 9.03 2.575 9.03 -5 6 C-3 2 -3 2 0 0 Z " fill="#B13550" transform="translate(76,170)"/>
<path d="M0 0 C2.62304755 3.67226657 2.17247348 7.60192621 2 12 C0.29159719 10.36587557 -0.93453047 9.13093906 -2 7 C-4.16072227 6.21376109 -6.35490875 5.51798774 -8.5625 4.875 C-9.76003906 4.52179688 -10.95757812 4.16859375 -12.19140625 3.8046875 C-13.11824219 3.53914063 -14.04507813 3.27359375 -15 3 C-10.97250316 -3.04124527 -6.29857256 -2.58845447 0 0 Z " fill="#8C0E26" transform="translate(165,96)"/>
<path d="M0 0 C0.99 0 1.98 0 3 0 C3.57485945 5.51865072 2.62107321 8.84090403 -0.48828125 13.46484375 C-2 15 -2 15 -5.3125 15.5 C-6.199375 15.335 -7.08625 15.17 -8 15 C-7.44011356 10.80085169 -6.04944839 8.14003726 -3.625 4.6875 C-3.01914063 3.80449219 -2.41328125 2.92148438 -1.7890625 2.01171875 C-1.19867188 1.34785156 -0.60828125 0.68398437 0 0 Z " fill="#C75370" transform="translate(162,70)"/>
<path d="M0 0 C3.465 2.475 3.465 2.475 7 5 C2.49434721 9.50565279 -4.76917055 9.24018715 -10.80078125 9.36328125 C-13.4579388 8.92435469 -14.32615172 8.05303721 -16 6 C-10.6787385 4.91681831 -5.36513131 3.847126 0 3 C0 2.01 0 1.02 0 0 Z " fill="#B94863" transform="translate(186,176)"/>
<path d="M0 0 C4.78775956 3.53613714 9.46451416 7.14483704 14 11 C13 13 13 13 11.15234375 13.6328125 C10.05599609 13.87644531 10.05599609 13.87644531 8.9375 14.125 C8.20402344 14.29257813 7.47054687 14.46015625 6.71484375 14.6328125 C6.14894531 14.75398437 5.58304688 14.87515625 5 15 C4.16260219 12.8765984 3.33019717 10.7512272 2.5 8.625 C1.80390625 6.84996094 1.80390625 6.84996094 1.09375 5.0390625 C0 2 0 2 0 0 Z " fill="#A71E3B" transform="translate(158,155)"/>
<path d="M0 0 C0.66 0 1.32 0 2 0 C1.91433603 2.912575 1.42089045 4.56798024 -0.625 6.66796875 C-2.38391375 8.16091772 -4.16313019 9.60436262 -6 11 C-5.71038086 15.77871573 -3.41721072 18.1172658 -0.27734375 21.44921875 C1 23 1 23 1 25 C1.66 25.33 2.32 25.66 3 26 C2.01 26.33 1.02 26.66 0 27 C-8.79488365 16.28186161 -8.79488365 16.28186161 -9.2578125 8.875 C-9 7 -9 7 -7 4 C-3.375 3.8125 -3.375 3.8125 0 4 C-0.33 3.01 -0.66 2.02 -1 1 C-0.67 0.67 -0.34 0.34 0 0 Z " fill="#DC0C3C" transform="translate(58,173)"/>
<path d="M0 0 C3.9520518 0.58172725 6.22095053 2.55157741 9.25 5.0625 C10.14203125 5.79597656 11.0340625 6.52945313 11.953125 7.28515625 C12.62859375 7.85105469 13.3040625 8.41695312 14 9 C13.401875 9.12375 12.80375 9.2475 12.1875 9.375 C9.73768652 9.95475985 9.73768652 9.95475985 7 12 C4.03 9.69 1.06 7.38 -2 5 C-1.67 4.34 -1.34 3.68 -1 3 C-0.34 3 0.32 3 1 3 C0.67 2.01 0.34 1.02 0 0 Z " fill="#BF4A66" transform="translate(174,161)"/>
<path d="M0 0 C1.42809691 2.85619382 0.56733756 4.45501694 -0.25 7.5 C-0.50265625 8.4796875 -0.7553125 9.459375 -1.015625 10.46875 C-2 13 -2 13 -5 15 C-6.98 14.01 -8.96 13.02 -11 12 C-10.67567593 8.93617261 -10.01098513 8.01029035 -7.71484375 5.859375 C-6.79832031 5.16328125 -5.88179688 4.4671875 -4.9375 3.75 C-4.01839844 3.04359375 -3.09929687 2.3371875 -2.15234375 1.609375 C-1.44207031 1.07828125 -0.73179688 0.5471875 0 0 Z " fill="#A71F3B" transform="translate(95,155)"/>
<path d="M0 0 C0.60585938 0.20496094 1.21171875 0.40992188 1.8359375 0.62109375 C7.90341521 2.5720212 13.64303124 3.6077615 20 4 C17.64046906 6.35953094 16.22104383 6.49141413 13 7 C13 7.33 13 7.66 13 8 C6.92671312 8.50610724 3.22771463 7.04157942 -2 4 C-1.34 2.68 -0.68 1.36 0 0 Z " fill="#BC4F68" transform="translate(63,179)"/>
<path d="M0 0 C0.66 0 1.32 0 2 0 C2.185625 0.78375 2.37125 1.5675 2.5625 2.375 C3.80630592 5.30675972 3.80630592 5.30675972 7.125 6.25 C11.09109601 7.01763149 14.98395161 7.57725806 19 8 C11.6 14 11.6 14 8 14 C5.95703125 11.69921875 5.95703125 11.69921875 3.8125 8.6875 C3.09707031 7.70136719 2.38164063 6.71523437 1.64453125 5.69921875 C0 3 0 3 0 0 Z " fill="#D87693" transform="translate(51,184)"/>
<path d="M0 0 C3.375 -0.125 3.375 -0.125 7 0 C9.28928215 2.28928215 9.38959839 2.876616 9.5625 6 C9.46227684 12.18376908 5.96915028 16.50389615 2 21 C1.01 21.66 0.02 22.32 -1 23 C-1.66 22.34 -2.32 21.68 -3 21 C-2.2575 20.278125 -1.515 19.55625 -0.75 18.8125 C3.95580767 14.28074434 3.95580767 14.28074434 6.625 8.5 C5.65695027 4.62780107 3.14993024 3.36244768 0 1 C0 0.67 0 0.34 0 0 Z " fill="#DF0B3C" transform="translate(196,177)"/>
<path d="M0 0 C1.33333333 4 2.66666667 8 4 12 C5.98 11.67 7.96 11.34 10 11 C8.68 12.32 7.36 13.64 6 15 C2.08788267 13.84414715 -0.8745041 12.64465038 -4 10 C-2.25 2.25 -2.25 2.25 0 0 Z " fill="#842435" transform="translate(98,153)"/>
<path d="M0 0 C1.74532927 2.26892805 2.77007408 4.35793691 4 7 C3.67 7.99 3.34 8.98 3 10 C0.99708788 8.52464063 -1.00236777 7.04497707 -3 5.5625 C-3.57234375 5.14162109 -4.1446875 4.72074219 -4.734375 4.28710938 C-6.17453919 3.21555864 -7.58951996 2.11033324 -9 1 C-9 0.67 -9 0.34 -9 0 C-2.93684211 -1.51578947 -2.93684211 -1.51578947 0 0 Z " fill="#8F3B4B" transform="translate(163,170)"/>
<path d="M0 0 C0.99 0 1.98 0 3 0 C1.62845496 2.95409701 0.01136276 5.44008376 -2 8 C-5.21852831 7.36934243 -7.50801069 6.21979305 -10.25 4.4375 C-10.95640625 3.98246094 -11.6628125 3.52742187 -12.390625 3.05859375 C-13.18726563 2.53458984 -13.18726563 2.53458984 -14 2 C-12.68 1.67 -11.36 1.34 -10 1 C-10 1.66 -10 2.32 -10 3 C-8.51988629 2.69201674 -7.04092675 2.378482 -5.5625 2.0625 C-4.32693359 1.80146484 -4.32693359 1.80146484 -3.06640625 1.53515625 C-1.02338796 1.19247006 -1.02338796 1.19247006 0 0 Z " fill="#D8869E" transform="translate(197,190)"/>
<path d="M0 0 C0.33 0.99 0.66 1.98 1 3 C-0.24542292 5.46988921 -1.53057105 7.73145266 -3 10.0625 C-3.41064697 10.72773682 -3.82129395 11.39297363 -4.24438477 12.07836914 C-11.84099706 24.28095222 -11.84099706 24.28095222 -15 28 C-15.66 28 -16.32 28 -17 28 C-15.62685651 24.10361822 -13.82262065 21.20706777 -11.3125 17.9375 C-7.05025442 12.21814304 -3.47466593 6.22182367 0 0 Z " fill="#F40030" transform="translate(184,80)"/>
<path d="M0 0 C0.99 0.66 1.98 1.32 3 2 C3 2.99 3 3.98 3 5 C-2.89738492 7.29342747 -7.66606918 8.34548714 -14 8 C-14.33 7.34 -14.66 6.68 -15 6 C-11.7 5.67 -8.4 5.34 -5 5 C-4.67 4.01 -4.34 3.02 -4 2 C-2.68 2 -1.36 2 0 2 C0 1.34 0 0.68 0 0 Z " fill="#B63E5A" transform="translate(183,174)"/>
<path d="M0 0 C0.53625 0.721875 1.0725 1.44375 1.625 2.1875 C5.12290399 6.32975472 8.93511619 9.85716454 14 12 C13.34 13.32 12.68 14.64 12 16 C11.22914063 15.36191406 10.45828125 14.72382813 9.6640625 14.06640625 C8.66117188 13.24011719 7.65828125 12.41382813 6.625 11.5625 C5.62726563 10.73878906 4.62953125 9.91507813 3.6015625 9.06640625 C1.20344705 7.01584166 1.20344705 7.01584166 -1 6 C-0.67 4.02 -0.34 2.04 0 0 Z " fill="#AB092D" transform="translate(208,205)"/>
<path d="M0 0 C2.64 0.66 5.28 1.32 8 2 C4.32442148 6.00972202 0.81033104 8.45335415 -4 11 C-3.52269162 9.5410574 -3.04308958 8.08286504 -2.5625 6.625 C-2.29566406 5.81289062 -2.02882813 5.00078125 -1.75390625 4.1640625 C-1 2 -1 2 0 0 Z " fill="#903C4C" transform="translate(91,169)"/>
<path d="M0 0 C1.32 0.33 2.64 0.66 4 1 C4.66 3.31 5.32 5.62 6 8 C5.34 8 4.68 8 4 8 C3.67 8.66 3.34 9.32 3 10 C3 8.68 3 7.36 3 6 C2.236875 6.04125 1.47375 6.0825 0.6875 6.125 C-2 6 -2 6 -5 4 C-5 3.01 -5 2.02 -5 1 C-2.525 1.495 -2.525 1.495 0 2 C0 1.34 0 0.68 0 0 Z " fill="#1D222F" transform="translate(219,198)"/>
<path d="M0 0 C2.64 0.33 5.28 0.66 8 1 C7.67 2.32 7.34 3.64 7 5 C6.34 5 5.68 5 5 5 C4.01 6.485 4.01 6.485 3 8 C2.34 7.01 1.68 6.02 1 5 C0.4225 5.309375 -0.155 5.61875 -0.75 5.9375 C-2.84294184 6.92583364 -4.74535275 7.5168613 -7 8 C-7.33 7.34 -7.66 6.68 -8 6 C-7.236875 5.7525 -6.47375 5.505 -5.6875 5.25 C-2.7635955 3.89004442 -1.69995644 2.68414174 0 0 Z " fill="#797A7F" transform="translate(36,202)"/>
<path d="M0 0 C0 0.66 0 1.32 0 2 C-6.11980533 3.40454548 -11.71739294 4.23268915 -18 4 C-18 3.34 -18 2.68 -18 2 C-15.56625904 1.27556542 -13.12959581 0.57017879 -10.6875 -0.125 C-9.99720703 -0.33253906 -9.30691406 -0.54007813 -8.59570312 -0.75390625 C-3.33984375 -2.2265625 -3.33984375 -2.2265625 0 0 Z " fill="#C15771" transform="translate(196,183)"/>
<path d="M0 0 C3.3510524 1.11701747 3.60919736 1.51485703 5.33984375 4.38671875 C5.9750293 5.4240918 5.9750293 5.4240918 6.62304688 6.48242188 C7.05681641 7.21009766 7.49058594 7.93777344 7.9375 8.6875 C8.79996749 10.10856712 9.66323758 11.52914746 10.52734375 12.94921875 C10.94097168 13.63290527 11.35459961 14.3165918 11.78076172 15.02099609 C13.45023039 17.73079045 15.21268295 20.36671387 17 23 C13.57471372 21.58682158 12.04052353 20.05260602 10.01953125 16.97265625 C9.49552734 16.18052734 8.97152344 15.38839844 8.43164062 14.57226562 C7.89732422 13.74404297 7.36300781 12.91582031 6.8125 12.0625 C6.26658203 11.23814453 5.72066406 10.41378906 5.15820312 9.56445312 C1.15022321 3.45066964 1.15022321 3.45066964 0 0 Z " fill="#F40030" transform="translate(71,85)"/>
<path d="M0 0 C4.04648443 1.34882814 4.95502599 3.34826069 7 7 C6.67 7.99 6.34 8.98 6 10 C3.9375 10.6875 3.9375 10.6875 2 11 C-0.67927341 6.98108988 -0.15601248 4.75838077 0 0 Z " fill="#CB5471" transform="translate(90,70)"/>
<path d="M0 0 C0.66 0 1.32 0 2 0 C2 4.95 2 9.9 2 15 C0.02 15.99 0.02 15.99 -2 17 C-1.505 15.515 -1.505 15.515 -1 14 C-0.95550861 11.7921149 -0.96083395 9.58298599 -1 7.375 C-1.03752174 5.25033129 -1.04682059 3.12448413 -1 1 C-0.67 0.67 -0.34 0.34 0 0 Z " fill="#ED003B" transform="translate(195,30)"/>
<path d="M0 0 C0.66 0 1.32 0 2 0 C3.25390625 1.6796875 3.25390625 1.6796875 4.5625 3.875 C4.99691406 4.59429687 5.43132813 5.31359375 5.87890625 6.0546875 C6.62444953 7.34834796 7.33225871 8.66451742 8 10 C3.87248551 9.39301257 0.6678852 7.96189209 -3 6 C-2.01 4.02 -1.02 2.04 0 0 Z " fill="#751124" transform="translate(13,215)"/>
<path d="M0 0 C3.05675241 4.58512862 3.11219208 7.77106324 3.0625 13.1875 C3.05347656 14.45980469 3.04445313 15.73210937 3.03515625 17.04296875 C3.02355469 18.01878906 3.01195312 18.99460938 3 20 C2.34 20 1.68 20 1 20 C0.87882812 19.29875 0.75765625 18.5975 0.6328125 17.875 C-0.37304502 12.18029895 -1.52311628 6.59105981 -3 1 C-2.01 0.67 -1.02 0.34 0 0 Z " fill="#AD0930" transform="translate(45,186)"/>
<path d="M0 0 C0.33 1.32 0.66 2.64 1 4 C0.34 4 -0.32 4 -1 4 C-1.0721875 4.58265625 -1.144375 5.1653125 -1.21875 5.765625 C-2.28181 8.8059766 -3.93368308 9.84962608 -6.5 11.75 C-7.3146875 12.36359375 -8.129375 12.9771875 -8.96875 13.609375 C-11 15 -11 15 -12 15 C-12 13.35 -12 11.7 -12 10 C-11.38511719 9.69707031 -10.77023438 9.39414063 -10.13671875 9.08203125 C-3.82431806 5.84866923 -3.82431806 5.84866923 0 0 Z " fill="#960C29" transform="translate(45,206)"/>
<path d="M0 0 C0.66 0 1.32 0 2 0 C1.6196061 6.08630247 -0.26430796 10.17835097 -4 15 C-6.3125 17 -6.3125 17 -8 18 C-6.125 13.25 -6.125 13.25 -5 11 C-4.34 11 -3.68 11 -3 11 C-2.86722656 10.28972656 -2.73445312 9.57945312 -2.59765625 8.84765625 C-2.42105469 7.92855469 -2.24445313 7.00945312 -2.0625 6.0625 C-1.88847656 5.14597656 -1.71445313 4.22945312 -1.53515625 3.28515625 C-1 1 -1 1 0 0 Z " fill="#261A2C" transform="translate(207,182)"/>
<path d="M0 0 C1.5078125 1.0625 1.5078125 1.0625 3 3 C3.1796875 6.25 3.1796875 6.25 2.875 10 C2.78992187 11.2375 2.70484375 12.475 2.6171875 13.75 C2 17 2 17 0.5703125 18.9375 C-1 20 -1 20 -3 20 C-3 19.34 -3 18.68 -3 18 C-2.34 18 -1.68 18 -1 18 C-1 16.68 -1 15.36 -1 14 C-0.34 14 0.32 14 1 14 C0.67 13.34 0.34 12.68 0 12 C-0.07065617 9.95944995 -0.08421976 7.91665743 -0.0625 5.875 C-0.05347656 4.77929688 -0.04445312 3.68359375 -0.03515625 2.5546875 C-0.02355469 1.71164063 -0.01195312 0.86859375 0 0 Z " fill="#C30531" transform="translate(47,192)"/>
<path d="M0 0 C1.32 0 2.64 0 4 0 C4.33 2.97 4.66 5.94 5 9 C4.01 9.495 4.01 9.495 3 10 C2.01 9.34 1.02 8.68 0 8 C0.33 7.34 0.66 6.68 1 6 C0.01 5.67 -0.98 5.34 -2 5 C-1.34 3.35 -0.68 1.7 0 0 Z " fill="#6E7076" transform="translate(218,204)"/>
<path d="M0 0 C1.32 0 2.64 0 4 0 C4.33 0.99 4.66 1.98 5 3 C5.99 3.66 6.98 4.32 8 5 C8.6875 8.125 8.6875 8.125 9 11 C10.32 11.33 11.64 11.66 13 12 C11.35 12 9.7 12 8 12 C7.34 9.69 6.68 7.38 6 5 C5.01 5 4.02 5 3 5 C2.67 6.65 2.34 8.3 2 10 C0.76276024 7.52552048 1 5.7446651 1 3 C0.67 2.01 0.34 1.02 0 0 Z " fill="#361A2F" transform="translate(224,222)"/>
<path d="M0 0 C0.33 0 0.66 0 1 0 C1.05420701 2.56278699 1.09377007 5.12441483 1.125 7.6875 C1.14175781 8.40873047 1.15851563 9.12996094 1.17578125 9.87304688 C1.21391569 14.04876781 0.8789919 17.2494138 -1 21 C-1.144375 20.38125 -1.28875 19.7625 -1.4375 19.125 C-1.93152225 16.96741678 -1.93152225 16.96741678 -3 15 C-3.33 14.34 -3.66 13.68 -4 13 C-3.0625 10.875 -3.0625 10.875 -2 9 C-2 10.32 -2 11.64 -2 13 C-1.34 13 -0.68 13 0 13 C0 8.71 0 4.42 0 0 Z " fill="#461931" transform="translate(67,218)"/>
<path d="M0 0 C1.98 0.99 1.98 0.99 4 2 C4 5.63 4 9.26 4 13 C3.01 13.495 3.01 13.495 2 14 C0.7490436 10.24713079 1 6.94020864 1 3 C0.67 2.01 0.34 1.02 0 0 Z " fill="#EE003A" transform="translate(57,30)"/>
<path d="M0 0 C0.33 0 0.66 0 1 0 C1.06058594 0.80824219 1.12117188 1.61648437 1.18359375 2.44921875 C1.26738281 3.51785156 1.35117188 4.58648437 1.4375 5.6875 C1.55931641 7.27111328 1.55931641 7.27111328 1.68359375 8.88671875 C1.93772866 11.9599765 1.93772866 11.9599765 2.59765625 14.76953125 C3 17 3 17 2 19 C0.68 18.67 -0.64 18.34 -2 18 C-1.84660156 17.48953125 -1.69320312 16.9790625 -1.53515625 16.453125 C-0.83094597 13.2250662 -0.65111796 10.04581999 -0.4375 6.75 C-0.35371094 5.48671875 -0.26992187 4.2234375 -0.18359375 2.921875 C-0.12300781 1.95765625 -0.06242187 0.9934375 0 0 Z " fill="#CF0537" transform="translate(68,220)"/>
<path d="M0 0 C0.33 0.66 0.66 1.32 1 2 C6.43584798 3.81987908 12.32562914 4.38097772 18 5 C18 5.33 18 5.66 18 6 C11.0267945 6.2233411 5.36063423 6.18031711 -1 3 C-0.67 2.01 -0.34 1.02 0 0 Z " fill="#B94762" transform="translate(66,177)"/>
<path d="M0 0 C0.33 0 0.66 0 1 0 C1.66 3.63 2.32 7.26 3 11 C0.69 9.35 -1.62 7.7 -4 6 C-2.84826645 3.53199953 -1.95216435 1.95216435 0 0 Z " fill="#5C152B" transform="translate(131,144)"/>
<path d="M0 0 C1 2 1 2 0.0625 5.125 C-0.288125 6.07375 -0.63875 7.0225 -1 8 C-2.98 7.34 -4.96 6.68 -7 6 C-3.375 1.125 -3.375 1.125 0 0 Z " fill="#D50336" transform="translate(203,199)"/>
<path d="M0 0 C3.96 0 7.92 0 12 0 C6.85714286 4.42857143 6.85714286 4.42857143 3 5 C2.01 3.35 1.02 1.7 0 0 Z " fill="#D391A5" transform="translate(58,192)"/>
<path d="M0 0 C2.31543614 0.61545786 4.62692196 1.24178036 6.9375 1.875 C7.59685547 2.04902344 8.25621094 2.22304687 8.93554688 2.40234375 C10.641503 2.87476237 12.32339261 3.43215028 14 4 C14.33 4.66 14.66 5.32 15 6 C8.92671312 6.50610724 5.22771463 5.04157942 0 2 C0 1.34 0 0.68 0 0 Z " fill="#C0566F" transform="translate(61,181)"/>
<path d="M0 0 C-0.66 2.64 -1.32 5.28 -2 8 C-3.65 6.35 -5.3 4.7 -7 3 C-4.49955934 -0.00052879 -4.2621484 0 0 0 Z " fill="#523744" transform="translate(146,134)"/>
<path d="M0 0 C3 1 3 1 4.1875 2.625 C5.27499354 5.80382728 5.1282071 8.66661533 5 12 C1.75254486 7.86687528 0 5.36067372 0 0 Z " fill="#D64064" transform="translate(85,65)"/>
<path d="M0 0 C0.66 0 1.32 0 2 0 C2.99 1.98 3.98 3.96 5 6 C2.69 6.33 0.38 6.66 -2 7 C-1.125 1.125 -1.125 1.125 0 0 Z " fill="#B70B31" transform="translate(90,80)"/>
<path d="M0 0 C-0.33 0.99 -0.66 1.98 -1 3 C-3.81943259 4.04169301 -6.77087524 4.25582539 -9.75 4.5625 C-10.94882813 4.68818359 -10.94882813 4.68818359 -12.171875 4.81640625 C-13.07679688 4.90728516 -13.07679688 4.90728516 -14 5 C-11.81385576 2.81385576 -10.46120051 2.31743465 -7.5625 1.375 C-6.38880859 0.98441406 -6.38880859 0.98441406 -5.19140625 0.5859375 C-3 0 -3 0 0 0 Z " fill="#D27790" transform="translate(201,188)"/>
<path d="M0 0 C0.99 0.99 1.98 1.98 3 3 C-3.20514474 5.13619737 -8.42684522 6.36517527 -15 6 C-15 5.67 -15 5.34 -15 5 C-7.575 3.515 -7.575 3.515 0 2 C0 1.34 0 0.68 0 0 Z " fill="#BD4F69" transform="translate(190,179)"/>
<path d="M0 0 C1.65 1.65 3.3 3.3 5 5 C3.35 6.65 1.7 8.3 0 10 C0 6.7 0 3.4 0 0 Z " fill="#9C0F2C" transform="translate(118,116)"/>
<path d="M0 0 C1.32 0.33 2.64 0.66 4 1 C4.33 2.32 4.66 3.64 5 5 C4.01 5.495 4.01 5.495 3 6 C2.01 5.01 1.02 4.02 0 3 C-1.98 3.99 -1.98 3.99 -4 5 C-2.68 3.35 -1.36 1.7 0 0 Z " fill="#C14C67" transform="translate(72,165)"/>
<path d="M0 0 C0.66 0.33 1.32 0.66 2 1 C0.390625 3.015625 0.390625 3.015625 -2 5 C-5.015625 5.171875 -5.015625 5.171875 -8.25 4.75 C-9.32765625 4.62109375 -10.4053125 4.4921875 -11.515625 4.359375 C-12.33546875 4.24078125 -13.1553125 4.1221875 -14 4 C-14 3.67 -14 3.34 -14 3 C-13.32453125 2.95101562 -12.6490625 2.90203125 -11.953125 2.8515625 C-11.06109375 2.77679688 -10.1690625 2.70203125 -9.25 2.625 C-8.36828125 2.55539063 -7.4865625 2.48578125 -6.578125 2.4140625 C-3.98391558 2.1295256 -3.98391558 2.1295256 -1.796875 0.8984375 C-0.90742187 0.45371094 -0.90742187 0.45371094 0 0 Z " fill="#D10F38" transform="translate(57,244)"/>
<path d="M0 0 C1.65 0 3.3 0 5 0 C5 2 5 2 2.75 4.5625 C0.26269209 6.76715929 -0.79635595 7.64403955 -4 8 C-4 4.99472353 -2.05564773 4.05564773 0 2 C0 1.34 0 0.68 0 0 Z " fill="#1E232F" transform="translate(33,200)"/>
<path d="M0 0 C0.99 0 1.98 0 3 0 C3 0.66 3 1.32 3 2 C2.01 2.33 1.02 2.66 0 3 C-1.71567661 6.50294871 -1.71567661 6.50294871 -3 10 C-4.65 9.67 -6.3 9.34 -8 9 C-7.38125 8.773125 -6.7625 8.54625 -6.125 8.3125 C-3.36681217 6.6089134 -3.05034149 5.00097569 -2 2 C-1.34 1.34 -0.68 0.68 0 0 Z " fill="#391B31" transform="translate(25,225)"/>
<path d="M0 0 C2.64 0.99 5.28 1.98 8 3 C7.67 4.65 7.34 6.3 7 8 C5.82512964 7.24172908 4.66027408 6.46792245 3.5 5.6875 C2.52546875 5.04361328 2.52546875 5.04361328 1.53125 4.38671875 C1.0259375 3.92910156 0.520625 3.47148437 0 3 C0 2.01 0 1.02 0 0 Z " fill="#9C0C29" transform="translate(214,213)"/>
<path d="M0 0 C-1.39375072 2.78750144 -3.16244861 2.89266287 -6 4 C-6.66 4.66 -7.32 5.32 -8 6 C-8.33 4.68 -8.66 3.36 -9 2 C-5.5647952 -0.29013653 -4.014669 -0.17842973 0 0 Z " fill="#F5002F" transform="translate(203,171)"/>
<path d="M0 0 C0.99 0 1.98 0 3 0 C3 1.98 3 3.96 3 6 C2.01 6 1.02 6 0 6 C-0.66 4.68 -1.32 3.36 -2 2 C-1.34 1.34 -0.68 0.68 0 0 Z " fill="#880E25" transform="translate(222,216)"/>
<path d="M0 0 C2.83374881 3.20336822 3.5205537 5.78087253 4 10 C3.01 10 2.02 10 1 10 C0.37542727 6.56484998 0 3.50935186 0 0 Z " fill="#501833" transform="translate(63,207)"/>
<path d="M0 0 C0.99 0 1.98 0 3 0 C3.33 0.99 3.66 1.98 4 3 C1.36 3.66 -1.28 4.32 -4 5 C-2.1875 2.5 -2.1875 2.5 0 0 Z " fill="#D60434" transform="translate(233,234)"/>
<path d="M0 0 C1.98 0.66 3.96 1.32 6 2 C4.1875 3.5625 4.1875 3.5625 2 5 C1.01 4.67 0.02 4.34 -1 4 C-0.67 2.68 -0.34 1.36 0 0 Z " fill="#C55E77" transform="translate(189,174)"/>
<path d="M0 0 C0.33 0 0.66 0 1 0 C1 2.31 1 4.62 1 7 C-0.65 7.33 -2.3 7.66 -4 8 C-2.68 5.36 -1.36 2.72 0 0 Z " fill="#BB0E34" transform="translate(164,77)"/>
<path d="M0 0 C2 2 2 2 2 6 C1.34 6 0.68 6 0 6 C0 7.98 0 9.96 0 12 C-0.33 12 -0.66 12 -1 12 C-1.14285714 3.42857143 -1.14285714 3.42857143 0 0 Z " fill="#CA0634" transform="translate(190,215)"/>
<path d="M0 0 C0.33 1.32 0.66 2.64 1 4 C0.34 4 -0.32 4 -1 4 C-1.103125 4.639375 -1.20625 5.27875 -1.3125 5.9375 C-1.539375 6.618125 -1.76625 7.29875 -2 8 C-2.99 8.33 -3.98 8.66 -5 9 C-3.50163895 5.88801935 -1.80066242 2.9465385 0 0 Z " fill="#AC092D" transform="translate(45,206)"/>
<path d="M0 0 C1.9375 1.125 1.9375 1.125 4 3 C4.75 6.1875 4.75 6.1875 5 9 C1.7457985 6.16569547 0.4793247 4.31392226 0 0 Z " fill="#2D1A2D" transform="translate(59,204)"/>
<path d="M0 0 C3.82946843 1.45255699 5.12050295 3.42895561 7 7 C6.01 7 5.02 7 4 7 C0 2.65714286 0 2.65714286 0 0 Z " fill="#E2809D" transform="translate(55,191)"/>
<path d="M0 0 C3.375 -0.125 3.375 -0.125 7 0 C7.66 0.66 8.32 1.32 9 2 C8.625 4.125 8.625 4.125 8 6 C8 5.01 8 4.02 8 3 C5.36 2.34 2.72 1.68 0 1 C0 0.67 0 0.34 0 0 Z " fill="#D20537" transform="translate(196,177)"/>
<path d="M0 0 C0 2.64 0 5.28 0 8 C-1.5 6.75 -1.5 6.75 -3 5 C-3 3.68 -3 2.36 -3 1 C-1 0 -1 0 0 0 Z " fill="#A20B2A" transform="translate(88,99)"/>
<path d="M0 0 C1.5625 1.8125 1.5625 1.8125 3 4 C2.67 4.99 2.34 5.98 2 7 C1.34 7 0.68 7 0 7 C-0.38133299 5.0085944 -0.71325582 3.00720923 -1 1 C-0.67 0.67 -0.34 0.34 0 0 Z " fill="#DA0334" transform="translate(61,210)"/>
<path d="M0 0 C1.65 1.65 3.3 3.3 5 5 C4.67 5.66 4.34 6.32 4 7 C3.34 6.34 2.68 5.68 2 5 C1.01 5.495 1.01 5.495 0 6 C-1.125 2.25 -1.125 2.25 0 0 Z " fill="#4E1832" transform="translate(58,200)"/>
</svg>
